<svg width="76" height="70" viewBox="0 0 76 70" fill="none" xmlns="http://www.w3.org/2000/svg">
<path d="M75.4984 -0.000314514L64.2422 2.5749L72.1005 11.0354L75.4984 -0.000314514ZM1.21 69.0001L1.89054 69.7328L4.21206 67.5766L3.53151 66.8439L2.85096 66.1112L0.529448 68.2674L1.21 69.0001ZM8.17453 62.5313L8.85508 63.264L13.4981 58.9515L12.8176 58.2188L12.137 57.4861L7.49399 61.7986L8.17453 62.5313ZM17.4606 53.9063L18.1411 54.639L22.7842 50.3265L22.1036 49.5938L21.4231 48.861L16.78 53.1736L17.4606 53.9063ZM26.7466 45.2812L27.4272 46.0139L32.0702 41.7014L31.3897 40.9687L30.7091 40.236L26.0661 44.5485L26.7466 45.2812ZM36.0327 36.6562L36.7132 37.3889L41.3563 33.0763L40.6757 32.3436L39.9952 31.6109L35.3521 35.9235L36.0327 36.6562ZM45.3188 28.0311L45.9993 28.7638L50.6423 24.4513L49.9618 23.7186L49.2812 22.9859L44.6382 27.2984L45.3188 28.0311ZM54.6048 19.4061L55.2854 20.1388L59.9284 15.8262L59.2478 15.0935L58.5673 14.3608L53.9243 18.6733L54.6048 19.4061ZM63.8909 10.781L64.5714 11.5137L69.2144 7.20117L68.5339 6.46846L67.8533 5.73576L63.2103 10.0483L63.8909 10.781Z" fill="#2F7FAA"/>
</svg>
