<svg width="30" height="30" viewBox="0 0 30 30" fill="none" xmlns="http://www.w3.org/2000/svg">
<path d="M29.9996 18.2336C29.9996 17.9909 29.8028 17.7942 29.5601 17.7942C29.3174 17.7942 29.1207 17.9909 29.1207 18.2336V20.8777L28.1352 20.4845C27.7189 20.3185 27.2822 20.2043 26.8379 20.1455C26.8348 20.1451 26.8317 20.1446 26.8284 20.1441V4.74576C26.8284 4.61217 26.9371 4.50342 27.0708 4.50342H28.8784C29.012 4.50342 29.1207 4.61211 29.1207 4.74576V16.5274C29.1207 16.7701 29.3174 16.9668 29.5602 16.9668C29.8029 16.9668 29.9996 16.7701 29.9996 16.5274V4.74576C29.9996 4.12754 29.4967 3.62451 28.8784 3.62451H27.0708C26.4526 3.62451 25.9495 4.12748 25.9495 4.74576V5.97564C22.7724 7.54338 18.8963 8.40494 14.9998 8.40494C11.1032 8.40494 7.22713 7.54332 4.05006 5.97564V4.74576C4.05006 4.12754 3.54709 3.62451 2.92881 3.62451H1.12119C0.502969 3.62451 0 4.12748 0 4.74576V7.38922C0 7.63191 0.196699 7.82867 0.439453 7.82867C0.682148 7.82867 0.878906 7.63191 0.878906 7.38922V4.74576C0.878906 4.61217 0.987598 4.50342 1.12125 4.50342H2.92887C3.06246 4.50342 3.17121 4.61211 3.17121 4.74576V20.1442C3.16811 20.1446 3.165 20.1451 3.16189 20.1455C2.71893 20.2065 2.28064 20.3186 1.86445 20.4846L0.878906 20.8777V9.09547C0.878906 8.85277 0.682148 8.65602 0.439453 8.65602C0.196699 8.65602 0 8.85277 0 9.09547V25.9357C0 26.1784 0.196758 26.3752 0.439453 26.3752H29.5605C29.8032 26.3752 30 26.1784 30 25.9357L29.9996 18.2336ZM4.05 6.95117C7.27037 8.45885 11.1283 9.28385 14.9998 9.28385C18.8712 9.28385 22.7292 8.45879 25.9495 6.95123V8.17273C25.2346 8.4885 24.4969 8.77174 23.7403 9.02193C23.7322 9.0241 23.7241 9.02568 23.7162 9.02826C18.1289 10.8638 11.8702 10.8703 6.28336 9.02826C6.27545 9.02568 6.26742 9.02404 6.25939 9.02193C5.50272 8.77168 4.76496 8.48844 4.05 8.17268V6.95117ZM14.9998 18.3441C11.1234 18.3441 7.34426 17.5762 4.05006 16.1212V14.8997C4.66658 15.1883 5.30672 15.4517 5.96566 15.6894C8.85223 16.7302 11.9337 17.2323 14.9998 17.2323C18.7465 17.2323 22.5473 16.4925 25.9495 14.8997V16.1213C22.6553 17.5762 18.8762 18.3441 14.9998 18.3441ZM25.9495 17.0785V20.1012C25.3151 20.1207 24.6946 20.2485 24.103 20.4846C23.0246 20.9148 21.8004 20.9147 20.7223 20.4846C19.4363 19.9715 17.976 19.9715 16.6901 20.4846C15.6118 20.9148 14.3876 20.9148 13.3094 20.4846C12.0235 19.9715 10.5629 19.9716 9.27727 20.4846C8.19885 20.9148 6.97482 20.9148 5.89652 20.4846C5.30502 20.2486 4.68451 20.1208 4.05006 20.1012V17.0785C7.37039 18.4829 11.1403 19.223 14.9998 19.223C18.8593 19.223 22.6292 18.483 25.9495 17.0785ZM4.05012 13.9241V9.12998C4.59088 9.35873 5.14359 9.56967 5.70662 9.76285V14.6538C5.13674 14.4311 4.58367 14.1874 4.05012 13.9241ZM6.58547 14.9759V10.047C7.03271 10.1832 7.48564 10.3085 7.94373 10.4225V15.3983C7.48336 15.2698 7.03014 15.1289 6.58547 14.9759ZM8.82264 15.6266V10.6258C9.49406 10.77 10.1749 10.8908 10.8633 10.9874V16.0306C10.173 15.9223 9.49148 15.7873 8.82264 15.6266ZM11.7422 16.1533V11.0967C12.1925 11.146 12.6454 11.1857 13.1005 11.2145V16.2853C12.6456 16.2529 12.1925 16.2086 11.7422 16.1533ZM13.9794 16.3333V11.2567C14.3187 11.2682 14.6589 11.2745 14.9998 11.2745C15.3407 11.2745 15.6809 11.2682 16.0202 11.2567V16.3333C15.6805 16.3463 15.3403 16.3534 14.9998 16.3534C14.6593 16.3534 14.3191 16.3463 13.9794 16.3333ZM16.8991 16.2853V11.2145C17.3542 11.1857 17.8071 11.146 18.2573 11.0967V16.1533C17.8071 16.2086 17.354 16.2529 16.8991 16.2853ZM19.1362 16.0306V10.9874C19.8247 10.8908 20.5055 10.7699 21.177 10.6258V15.6266C20.5081 15.7872 19.8265 15.9223 19.1362 16.0306ZM22.0559 15.3983V10.4224C22.514 10.3085 22.9669 10.1832 23.4141 10.047V14.9759C22.9695 15.129 22.5163 15.2698 22.0559 15.3983ZM24.293 14.6538V9.76279C24.8561 9.56961 25.4088 9.35867 25.9495 9.12998V13.9241C25.4159 14.1874 24.8629 14.4311 24.293 14.6538ZM29.1211 25.4963H0.878906C0.878906 25.4963 0.878906 21.824 0.879961 21.8236L2.19006 21.3009C2.1927 21.2998 2.19539 21.299 2.19803 21.2979C3.27475 20.8708 4.49502 20.8717 5.57074 21.3009C6.85682 21.814 8.31697 21.8139 9.60287 21.3009C10.6806 20.8709 11.9062 20.8711 12.9836 21.3009C14.2697 21.8141 15.7298 21.814 17.0157 21.301C18.0933 20.8711 19.3194 20.8712 20.3965 21.3009C21.6817 21.8137 23.1438 21.8135 24.4287 21.3009C25.5067 20.8708 26.7313 20.8709 27.8094 21.3009L29.1211 21.8241V25.4963Z" fill="url(#paint0_linear_1_696)"/>
<defs>
<linearGradient id="paint0_linear_1_696" x1="-1.59763" y1="3.62451" x2="32.4186" y2="8.13509" gradientUnits="userSpaceOnUse">
<stop stop-color="#2F7FAA"/>
<stop offset="1" stop-color="#58CAA4"/>
</linearGradient>
</defs>
</svg>
