<svg width="30" height="30" viewBox="0 0 30 30" fill="none" xmlns="http://www.w3.org/2000/svg">
<g clip-path="url(#clip0_1_939)">
<path d="M26.5027 6.27394C26.2627 4.61319 25.4547 3.08704 24.2048 1.94649C22.8623 0.721492 21.1213 0.046875 19.3027 0.046875C17.0178 0.046875 14.8889 1.10978 13.5151 2.91348C12.7663 2.53401 11.937 2.33536 11.0896 2.33536C8.78368 2.33536 6.76152 3.79387 6.01753 5.93638C5.83 5.91664 5.6413 5.90677 5.45282 5.90677C2.49138 5.90677 0.0820312 8.31606 0.0820312 11.2775C0.0820312 14.239 2.49138 16.6483 5.45282 16.6483C5.54245 16.6483 5.63486 16.6458 5.72845 16.641C5.74278 16.6422 5.75725 16.6427 5.77186 16.6427H7.5537V19.9172C7.5537 20.5737 7.98111 21.509 10.0174 22.237C11.2475 22.6767 12.8208 22.9449 14.5122 23.0089V25.3711C13.6529 25.5704 12.9751 26.2483 12.7758 27.1079H5.84638C5.55693 27.1079 5.3223 27.3425 5.3223 27.6319C5.3223 27.9214 5.55693 28.156 5.84638 28.156H12.7758C13.0142 29.1841 13.9369 29.9528 15.0363 29.9528C16.1358 29.9528 17.0585 29.1841 17.2968 28.156H24.2263C24.5157 28.156 24.7504 27.9214 24.7504 27.6319C24.7504 27.3425 24.5157 27.1079 24.2263 27.1079H17.2968C17.0975 26.2483 16.4198 25.5704 15.5604 25.3711V23.0218C17.4525 22.9987 19.2293 22.7226 20.5875 22.2369C22.6238 21.509 23.0512 20.5736 23.0512 19.9172V16.6428H24.3102C24.3937 16.6464 24.4713 16.6483 24.5474 16.6483C24.6261 16.6483 24.7066 16.6464 24.7938 16.6423C24.7948 16.6423 24.7959 16.6422 24.797 16.6422C27.6686 16.5106 29.9181 14.1541 29.9181 11.2775C29.9181 9.04426 28.5593 7.07446 26.5027 6.27394ZM16.1949 27.1079C16.2675 27.2679 16.3091 27.445 16.3091 27.6319C16.3091 27.8189 16.2675 27.996 16.1949 28.156C15.9946 28.5968 15.5512 28.9047 15.0363 28.9047C14.5214 28.9047 14.078 28.5968 13.8778 28.156C13.8051 27.996 13.7636 27.8189 13.7636 27.6319C13.7636 27.445 13.8051 27.2679 13.8778 27.1079C14.078 26.6671 14.5215 26.3592 15.0363 26.3592C15.5512 26.3592 15.9946 26.6671 16.1949 27.1079ZM22.0031 19.9172C22.0031 20.7566 19.3928 21.976 15.3025 21.976C11.2121 21.976 8.60185 20.7566 8.60185 19.9172V18.5414C8.95338 18.7807 9.41443 19.0145 10.0175 19.2302C11.4372 19.7378 13.3141 20.0173 15.3025 20.0173C17.2908 20.0173 19.1677 19.7378 20.5875 19.2302C21.1905 19.0145 21.6516 18.7807 22.0031 18.5414V19.9172H22.0031ZM22.0031 16.9104C22.0031 17.7498 19.3928 18.9691 15.3025 18.9691C11.2121 18.9691 8.60185 17.7498 8.60185 16.9104V16.6428V15.6372C8.95338 15.8765 9.41443 16.1104 10.0175 16.326C10.3487 16.4444 10.7056 16.5498 11.0821 16.6428C12.3198 16.9482 13.7779 17.1131 15.3025 17.1131C16.827 17.1131 18.2852 16.9482 19.5228 16.6428C19.8994 16.5498 20.2563 16.4444 20.5875 16.326C21.1905 16.1104 21.6516 15.8765 22.0031 15.6372V16.6428V16.9104H22.0031ZM8.60183 14.0062C8.60183 13.1667 11.2121 11.9473 15.3025 11.9473C19.3928 11.9473 22.0031 13.1667 22.0031 14.0062C22.0031 14.5149 21.0429 15.1628 19.377 15.5946C18.2941 15.8753 16.9138 16.065 15.3025 16.065C13.6911 16.065 12.3108 15.8753 11.2279 15.5946C9.56195 15.1628 8.60183 14.5149 8.60183 14.0062ZM24.7517 15.5951C24.7507 15.5951 24.7497 15.5951 24.7487 15.5952C24.6043 15.6018 24.4898 15.6018 24.3461 15.5952C24.3381 15.5948 24.33 15.5946 24.322 15.5946H23.0512V13.8689C23.0512 13.8018 23.0381 13.7379 23.0152 13.6789C22.8778 13.0616 22.3048 12.3003 20.5875 11.6863C19.1678 11.1787 17.2908 10.8991 15.3025 10.8991C13.3141 10.8991 11.4372 11.1787 10.0174 11.6863C7.98111 12.4143 7.5537 13.3496 7.5537 14.0062V15.5946H5.8455C5.8101 15.5896 5.77415 15.5882 5.7378 15.5906C5.64035 15.5969 5.54448 15.6001 5.4528 15.6001C3.06926 15.6001 1.13018 13.661 1.13018 11.2775C1.13018 8.89409 3.06926 6.95493 5.4528 6.95493C5.73326 6.95493 6.01445 6.98219 6.28848 7.03586C6.5631 7.08961 6.82966 6.91948 6.89751 6.64916C7.38043 4.72638 9.10435 3.38353 11.0896 3.38353C11.906 3.38353 12.7012 3.61243 13.3894 4.04556C13.6303 4.19728 13.9484 4.12876 14.1056 3.89123C15.2639 2.14031 17.2067 1.09503 19.3027 1.09503C22.5236 1.09503 25.1879 3.50906 25.5 6.71021C25.5203 6.91873 25.6628 7.09508 25.8623 7.15869C27.6613 7.73256 28.8699 9.38774 28.8699 11.2775C28.8699 13.5919 27.0613 15.4878 24.7517 15.5951Z" fill="url(#paint0_linear_1_939)"/>
</g>
<defs>
<linearGradient id="paint0_linear_1_939" x1="-1.50687" y1="0.0468753" x2="32.5753" y2="3.46612" gradientUnits="userSpaceOnUse">
<stop stop-color="#2F7FAA"/>
<stop offset="1" stop-color="#58CAA4"/>
</linearGradient>
<clipPath id="clip0_1_939">
<rect width="30" height="30" fill="white"/>
</clipPath>
</defs>
</svg>
