<svg width="30" height="30" viewBox="0 0 30 30" fill="none" xmlns="http://www.w3.org/2000/svg">
<path d="M26.25 12.5V11.25H3.75V12.5H26.25ZM26.25 13.75H3.75V20.625C3.75 21.6605 4.58947 22.5 5.625 22.5H24.375C25.4105 22.5 26.25 21.6605 26.25 20.625V13.75ZM26.25 10V9.375C26.25 8.33947 25.4105 7.5 24.375 7.5H5.625C4.58947 7.5 3.75 8.33947 3.75 9.375V10H26.25ZM21.2502 20.9156C20.287 21.4729 19.0439 21.3294 18.2322 20.5178C17.2559 19.5415 17.2559 17.9585 18.2322 16.9822C19.0425 16.1719 20.2852 16.0261 21.2501 16.5844C21.6178 16.3717 22.0447 16.25 22.5 16.25C23.8807 16.25 25 17.3693 25 18.75C25 20.1307 23.8807 21.25 22.5 21.25C22.0447 21.25 21.6178 21.1283 21.2502 20.9156ZM20.3123 19.9608C20.1133 19.6021 20 19.1893 20 18.75C20 18.3107 20.1133 17.8979 20.3123 17.5391C19.8961 17.4323 19.4378 17.5445 19.1161 17.8661C18.628 18.3543 18.628 19.1457 19.1161 19.6339C19.4382 19.9559 19.8965 20.0676 20.3123 19.9608ZM2.5 9.375C2.5 7.64911 3.89911 6.25 5.625 6.25H24.375C26.1009 6.25 27.5 7.64911 27.5 9.375V20.625C27.5 22.3509 26.1009 23.75 24.375 23.75H5.625C3.89911 23.75 2.5 22.3509 2.5 20.625V9.375ZM22.5 20C23.1904 20 23.75 19.4404 23.75 18.75C23.75 18.0596 23.1904 17.5 22.5 17.5C21.8096 17.5 21.25 18.0596 21.25 18.75C21.25 19.4404 21.8096 20 22.5 20Z" fill="url(#paint0_linear_1_935)"/>
<defs>
<linearGradient id="paint0_linear_1_935" x1="1.16864" y1="6.25" x2="29.4307" y2="10.31" gradientUnits="userSpaceOnUse">
<stop stop-color="#2F7FAA"/>
<stop offset="1" stop-color="#58CAA4"/>
</linearGradient>
</defs>
</svg>
