<svg width="35" height="35" viewBox="0 0 35 35" fill="none" xmlns="http://www.w3.org/2000/svg">
<path fill-rule="evenodd" clip-rule="evenodd" d="M27.6088 9.10629C25.7498 8.26698 23.7563 7.64862 21.672 7.29445C21.6341 7.28762 21.5961 7.3047 21.5766 7.33886C21.3202 7.78754 21.0362 8.37288 20.8374 8.83296C18.5955 8.50272 16.3652 8.50272 14.1694 8.83296C13.9705 8.36266 13.6762 7.78754 13.4187 7.33886C13.3991 7.30584 13.3612 7.28876 13.3232 7.29445C11.2401 7.64749 9.2466 8.26585 7.38647 9.10629C7.37036 9.11312 7.35656 9.12452 7.3474 9.13931C3.56619 14.6978 2.53036 20.1197 3.0385 25.4743C3.0408 25.5005 3.05574 25.5255 3.07644 25.5415C5.57117 27.3442 7.98775 28.4386 10.3595 29.164C10.3974 29.1754 10.4376 29.1617 10.4618 29.131C11.0228 28.3771 11.5229 27.5822 11.9517 26.7463C11.977 26.6974 11.9529 26.6393 11.9011 26.6199C11.1079 26.3238 10.3526 25.9628 9.62597 25.5529C9.5685 25.5198 9.5639 25.439 9.61677 25.4002C9.76967 25.2875 9.92261 25.1702 10.0686 25.0518C10.095 25.0301 10.1318 25.0256 10.1629 25.0392C14.9362 27.1836 20.1039 27.1836 24.8209 25.0392C24.8519 25.0244 24.8887 25.029 24.9163 25.0506C25.0623 25.1691 25.2152 25.2875 25.3693 25.4002C25.4221 25.439 25.4187 25.5198 25.3612 25.5529C24.6346 25.9708 23.8793 26.3238 23.0849 26.6188C23.0332 26.6381 23.0102 26.6974 23.0355 26.7463C23.4735 27.581 23.9736 28.3759 24.5243 29.1298C24.5473 29.1617 24.5886 29.1754 24.6266 29.164C27.0098 28.4386 29.4264 27.3442 31.9211 25.5415C31.9429 25.5255 31.9568 25.5016 31.9591 25.4754C32.5672 19.2849 30.9404 13.9075 27.6467 9.14044C27.6386 9.12452 27.6249 9.11312 27.6088 9.10629ZM15.343 19.3242C15.343 20.9351 14.1514 22.2409 12.6815 22.2409C11.2116 22.2409 10.02 20.9351 10.02 19.3242C10.02 17.7134 11.2116 16.4076 12.6815 16.4076C14.1514 16.4076 15.343 17.7134 15.343 19.3242ZM22.2919 22.2409C23.7618 22.2409 24.9533 20.9351 24.9533 19.3242C24.9533 17.7134 23.7618 16.4076 22.2919 16.4076C20.822 16.4076 19.6304 17.7134 19.6304 19.3242C19.6304 20.9351 20.822 22.2409 22.2919 22.2409Z" fill="white"/>
</svg>
