<svg width="30" height="30" viewBox="0 0 30 30" fill="none" xmlns="http://www.w3.org/2000/svg">
<g clip-path="url(#clip0_1_702)">
<path fill-rule="evenodd" clip-rule="evenodd" d="M15.0017 29.2793V30C18.6029 30 21.9118 28.7241 24.5 26.6006L23.5698 25.5C21.2329 27.4109 18.2488 28.5585 15.0017 28.5585H15.0006C7.52483 28.5585 1.44207 22.4761 1.44148 15C1.44148 7.52395 7.52395 1.44148 15 1.44148C22.4764 1.44148 28.5588 7.52395 28.5585 15C28.5585 18.1588 27.4729 21.0688 25.6551 23.3763L26.6005 24.5C28.7242 21.9114 30.0001 18.6019 30 15C30 6.72909 23.2711 0 15 0C6.72909 0 0 6.72909 0 15C0.000588241 23.2709 6.72997 30 15.0006 30L15.0017 29.2793Z" fill="url(#paint0_linear_1_702)"/>
<path d="M15.0014 23.5937C12.2762 23.5937 10.0586 21.5044 10.0586 18.9366C10.0586 18.5385 10.3812 18.2159 10.7793 18.2159C11.1775 18.2159 11.5001 18.5385 11.5001 18.9366C11.5001 20.7096 13.0707 22.1523 15.0014 22.1523C16.9321 22.1523 18.5022 20.7096 18.5022 18.9366C18.5022 17.1636 16.9318 15.7209 15.0014 15.7209C12.2762 15.7209 10.0586 13.6317 10.0586 11.0638C10.0586 8.49597 12.2762 6.40674 15.0014 6.40674C16.4649 6.40674 17.844 7.01219 18.7856 8.06788C19.0505 8.36509 19.0243 8.82059 18.7274 9.08554C18.4304 9.35079 17.9747 9.32427 17.7097 9.0273C17.0417 8.27803 16.0546 7.84817 15.0014 7.84817C13.071 7.84817 11.5001 9.29049 11.5001 11.0638C11.5001 12.8369 13.0707 14.2795 15.0014 14.2795C17.7268 14.2795 19.9437 16.3687 19.9437 18.9366C19.944 21.5044 17.7267 23.5937 15.0014 23.5937Z" fill="url(#paint1_linear_1_702)"/>
<path d="M14.8694 25.7471C14.4713 25.7471 14.1487 25.4245 14.1487 25.0263V4.97367C14.1487 4.57553 14.4713 4.25293 14.8694 4.25293C15.2676 4.25293 15.5902 4.57553 15.5902 4.97367V25.0263C15.5902 25.4245 15.2676 25.7471 14.8694 25.7471Z" fill="url(#paint2_linear_1_702)"/>
</g>
<defs>
<linearGradient id="paint0_linear_1_702" x1="-1.59763" y1="3.40567e-07" x2="32.6702" y2="3.44592" gradientUnits="userSpaceOnUse">
<stop stop-color="#2F7FAA"/>
<stop offset="1" stop-color="#58CAA4"/>
</linearGradient>
<linearGradient id="paint1_linear_1_702" x1="9.53217" y1="6.40674" x2="20.8997" y2="7.06419" gradientUnits="userSpaceOnUse">
<stop stop-color="#2F7FAA"/>
<stop offset="1" stop-color="#58CAA4"/>
</linearGradient>
<linearGradient id="paint2_linear_1_702" x1="14.0719" y1="4.25293" x2="15.735" y2="4.26415" gradientUnits="userSpaceOnUse">
<stop stop-color="#2F7FAA"/>
<stop offset="1" stop-color="#58CAA4"/>
</linearGradient>
<clipPath id="clip0_1_702">
<rect width="30" height="30" fill="white"/>
</clipPath>
</defs>
</svg>
