<svg width="30" height="30" viewBox="0 0 30 30" fill="none" xmlns="http://www.w3.org/2000/svg">
<path fill-rule="evenodd" clip-rule="evenodd" d="M22.2137 22.0585H29.0625C29.2242 22.0585 29.3555 21.9273 29.3555 21.7655V17.399C29.3555 16.2193 28.3975 15.2615 27.218 15.2615H20.9141C20.4994 15.2615 20.1122 15.3798 19.7842 15.5846C19.6475 15.5644 19.5079 15.554 19.3658 15.554H10.6342C10.4921 15.554 10.3525 15.5644 10.2158 15.5846C9.88781 15.3798 9.50057 15.2615 9.0859 15.2615H2.78203C1.6023 15.2615 0.644531 16.2193 0.644531 17.399V21.7655C0.644531 21.9273 0.775723 22.0585 0.9375 22.0585H7.78635V24.45C7.78635 24.6118 7.91754 24.743 8.07932 24.743H21.9207C22.0825 24.743 22.2137 24.6118 22.2137 24.45V22.0585ZM19.778 16.1775C19.6444 16.1528 19.5066 16.1399 19.3658 16.1399H10.6342C10.4934 16.1399 10.3556 16.1528 10.222 16.1775C10.2116 16.1801 10.201 16.1821 10.1904 16.1835C9.15416 16.3901 8.37229 17.3054 8.37229 18.4019V21.7654V24.1571H10.9066V21.7655C10.9066 21.6038 11.0378 21.4725 11.1995 21.4725C11.3612 21.4725 11.4925 21.6038 11.4925 21.7655V24.1571H18.5075V21.7655C18.5075 21.6038 18.6388 21.4725 18.8005 21.4725C18.9622 21.4725 19.0934 21.6038 19.0934 21.7655V24.1571H21.6277V18.4019C21.6277 17.3054 20.8458 16.3901 19.8096 16.1835C19.799 16.1821 19.7884 16.1801 19.778 16.1775ZM27.1025 21.4725H28.7695V17.399C28.7695 16.5426 28.074 15.8474 27.218 15.8474H20.9141C20.8293 15.8474 20.7461 15.8542 20.665 15.8673C21.5842 16.34 22.2137 17.298 22.2137 18.4019V21.4725H26.5166V19.8274C26.5166 19.6657 26.6484 19.5344 26.8096 19.5344C26.9713 19.5344 27.1025 19.6657 27.1025 19.8274V21.4725ZM9.33504 15.8673C9.25395 15.8542 9.17068 15.8474 9.0859 15.8474H2.78203C1.92568 15.8474 1.23047 16.5426 1.23047 17.399V21.4725H2.89723V19.8274C2.89723 19.6657 3.02848 19.5344 3.19019 19.5344C3.35185 19.5344 3.48316 19.6657 3.48316 19.8274V21.4725H7.78635V18.4019C7.78635 17.298 8.41576 16.34 9.33504 15.8673ZM5.93397 7.82734C4.02111 7.82734 2.46814 9.38031 2.46814 11.2932C2.46814 13.206 4.02111 14.759 5.93397 14.759C7.84682 14.759 9.39978 13.206 9.39978 11.2932C9.39978 9.38031 7.84682 7.82734 5.93397 7.82734ZM24.066 7.82734C22.1532 7.82734 20.6002 9.38031 20.6002 11.2932C20.6002 13.206 22.1532 14.759 24.066 14.759C25.9787 14.759 27.532 13.206 27.532 11.2932C27.532 9.38031 25.9787 7.82734 24.066 7.82734ZM15 5.25684C12.4128 5.25684 10.3123 7.35736 10.3123 9.94457C10.3123 12.5318 12.4128 14.6323 15 14.6323C17.5872 14.6323 19.6877 12.5318 19.6877 9.94457C19.6877 7.35736 17.5872 5.25684 15 5.25684ZM5.93397 8.41328C7.52338 8.41328 8.81385 9.70369 8.81385 11.2932C8.81385 12.8826 7.52338 14.173 5.93397 14.173C4.34449 14.173 3.05408 12.8826 3.05408 11.2932C3.05408 9.70369 4.34449 8.41328 5.93397 8.41328ZM24.066 8.41328C25.6555 8.41328 26.9461 9.70369 26.9461 11.2932C26.9461 12.8826 25.6555 14.173 24.066 14.173C22.4766 14.173 21.1862 12.8826 21.1862 11.2932C21.1862 9.70369 22.4766 8.41328 24.066 8.41328ZM15 5.84277C17.2638 5.84277 19.1018 7.68074 19.1018 9.94457C19.1018 12.2084 17.2638 14.0464 15 14.0464C12.7362 14.0464 10.8982 12.2084 10.8982 9.94457C10.8982 7.68074 12.7362 5.84277 15 5.84277Z" fill="url(#paint0_linear_1_929)"/>
<defs>
<linearGradient id="paint0_linear_1_929" x1="-0.884454" y1="5.25684" x2="31.531" y2="10.0596" gradientUnits="userSpaceOnUse">
<stop stop-color="#2F7FAA"/>
<stop offset="1" stop-color="#58CAA4"/>
</linearGradient>
</defs>
</svg>
