<svg width="35" height="35" viewBox="0 0 35 35" fill="none" xmlns="http://www.w3.org/2000/svg">
<path fill-rule="evenodd" clip-rule="evenodd" d="M4.09025 7.29297C2.91797 9.32341 2.91797 12.0494 2.91797 17.5013C2.91797 22.9532 2.91797 25.6792 4.09025 27.7096C4.85822 29.0398 5.9628 30.1444 7.29297 30.9124C9.32341 32.0846 12.0494 32.0846 17.5013 32.0846C22.9532 32.0846 25.6792 32.0846 27.7096 30.9124C29.0398 30.1444 30.1444 29.0398 30.9124 27.7096C32.0846 25.6792 32.0846 22.9532 32.0846 17.5013C32.0846 12.0494 32.0846 9.32341 30.9124 7.29297C30.1444 5.9628 29.0398 4.85822 27.7096 4.09025C25.6792 2.91797 22.9532 2.91797 17.5013 2.91797C12.0494 2.91797 9.32341 2.91797 7.29297 4.09025C5.9628 4.85822 4.85822 5.9628 4.09025 7.29297ZM19.3718 14.5662C19.3718 13.4957 20.266 12.6279 21.3691 12.6279H24.793V8.7513H21.3691C18.0598 8.7513 15.3772 11.3547 15.3772 14.5662V17.6121H11.668V21.4886H15.3772V30.6263H19.3718V21.4886H23.6517L24.2223 17.6121H19.3718V14.5662Z" fill="white"/>
</svg>
