<svg width="30" height="30" viewBox="0 0 30 30" fill="none" xmlns="http://www.w3.org/2000/svg">
<path d="M15 15.293C16.9385 15.293 18.5156 13.7159 18.5156 11.7773C18.5156 9.83883 16.9385 8.26172 15 8.26172C13.0615 8.26172 11.4844 9.83883 11.4844 11.7773C11.4844 13.7159 13.0615 15.293 15 15.293ZM14.1211 12.0703C13.9593 12.0703 13.8281 11.9391 13.8281 11.7773V10.3125C13.8281 10.1507 13.9593 10.0195 14.1211 10.0195H14.707V9.72656C14.707 9.56479 14.8382 9.43359 15 9.43359C15.1618 9.43359 15.293 9.56479 15.293 9.72656V10.0195H15.8789C16.0407 10.0195 16.1719 10.1507 16.1719 10.3125C16.1719 10.4743 16.0407 10.6055 15.8789 10.6055H14.4141V11.4844H15.8789C16.0407 11.4844 16.1719 11.6156 16.1719 11.7773V13.2422C16.1719 13.404 16.0407 13.5352 15.8789 13.5352H15.293V13.8281C15.293 13.9899 15.1618 14.1211 15 14.1211C14.8382 14.1211 14.707 13.9899 14.707 13.8281V13.5352H14.1211C13.9593 13.5352 13.8281 13.404 13.8281 13.2422C13.8281 13.0804 13.9593 12.9492 14.1211 12.9492H15.5859V12.0703H14.1211Z" fill="url(#paint0_linear_1_878)"/>
<path d="M15 16.4648C17.5847 16.4648 19.6875 14.362 19.6875 11.7773C19.6875 11.0428 19.5173 10.3474 19.2148 9.72791C19.5244 9.09281 19.6875 8.3867 19.6875 7.67578C19.6875 5.09109 17.5847 2.98828 15 2.98828C12.4153 2.98828 10.3125 5.09109 10.3125 7.67578C10.3125 8.3867 10.4756 9.09281 10.7852 9.72791C10.4827 10.3474 10.3125 11.0428 10.3125 11.7773C10.3125 14.362 12.4153 16.4648 15 16.4648ZM15 3.57422C17.2616 3.57422 19.1016 5.41418 19.1016 7.67578C19.1016 8.16316 19.0137 8.64779 18.8457 9.10189C18.7117 8.90988 18.5637 8.72848 18.4031 8.55885C18.4775 8.2708 18.5156 7.97461 18.5156 7.67578C18.5156 5.73727 16.9385 4.16016 15 4.16016C13.0615 4.16016 11.4844 5.73727 11.4844 7.67578C11.4844 7.97455 11.5225 8.2708 11.5969 8.55885C11.4364 8.72848 11.2883 8.90982 11.1543 9.10189C10.9863 8.64779 10.8984 8.16316 10.8984 7.67578C10.8984 5.41418 12.7384 3.57422 15 3.57422ZM15.8789 5.91797H15.293V5.625C15.293 5.46322 15.1618 5.33203 15 5.33203C14.8382 5.33203 14.707 5.46322 14.707 5.625V5.91797H14.1211C13.9593 5.91797 13.8281 6.04916 13.8281 6.21094V7.2382C13.1895 7.40314 12.6041 7.70068 12.1009 8.09801C12.0807 7.95855 12.0703 7.81752 12.0703 7.67578C12.0703 6.06035 13.3846 4.74609 15 4.74609C16.6154 4.74609 17.9297 6.06035 17.9297 7.67578C17.9297 7.81752 17.9193 7.9585 17.8991 8.09801C17.1007 7.46754 16.0939 7.08984 15 7.08984C14.8014 7.08984 14.6062 7.10367 14.4141 7.12775V6.50391H15.8789C16.0407 6.50391 16.1719 6.37271 16.1719 6.21094C16.1719 6.04916 16.0407 5.91797 15.8789 5.91797ZM15 7.67578C17.2616 7.67578 19.1016 9.51574 19.1016 11.7773C19.1016 14.0389 17.2616 15.8789 15 15.8789C12.7384 15.8789 10.8984 14.0389 10.8984 11.7773C10.8984 9.51574 12.7384 7.67578 15 7.67578Z" fill="url(#paint1_linear_1_878)"/>
<path d="M28.4766 24.0821H19.6662L28.9519 11.3306C29.0471 11.1998 29.0183 11.0166 28.8875 10.9213C27.2919 9.75939 26.767 9.37713 26.6167 9.26779L26.6168 9.26785C26.6167 9.26779 26.6167 9.26779 26.6167 9.26773C26.6167 9.26773 26.6167 9.26773 26.6167 9.26779C26.6167 9.26773 26.6167 9.26773 26.6166 9.26767C26.6162 9.26732 26.6155 9.26685 26.6149 9.26638C26.6151 9.26656 26.6152 9.26668 26.6154 9.26679C26.615 9.2665 26.6146 9.26621 26.6142 9.26591C26.6145 9.26609 26.6146 9.26621 26.6149 9.26638C26.613 9.26504 26.6106 9.26334 26.6077 9.26117C26.6081 9.26152 26.6086 9.26187 26.6091 9.26216C26.6023 9.25718 26.5965 9.25302 26.5914 9.24927C26.5914 9.24933 26.5915 9.24939 26.5916 9.24945C26.5908 9.24892 26.5902 9.2484 26.5894 9.24781C26.5838 9.24377 26.5793 9.24049 26.5757 9.23785C26.5758 9.23797 26.576 9.23808 26.5761 9.2382C26.5745 9.23697 26.5726 9.23562 26.5709 9.23433C26.5711 9.23451 26.5713 9.23468 26.5716 9.23486C26.5708 9.23433 26.5702 9.23392 26.5696 9.23345C26.5695 9.23339 26.5695 9.23328 26.5693 9.23322C26.5683 9.23246 26.5673 9.23175 26.5666 9.23117C26.5542 9.22215 26.5396 9.21148 26.5217 9.19847C26.4394 9.13754 26.3307 9.12769 26.2459 9.15881L24.2828 9.86586C24.1699 9.90646 24.0933 10.0118 24.0892 10.1316L24.0256 12.0203L22.2472 12.6608C22.1343 12.7014 22.0577 12.8067 22.0536 12.9266L21.9906 14.8152L20.2123 15.4551C20.0994 15.4957 20.0227 15.601 20.0187 15.7209L19.955 17.61L18.1772 18.25C18.0643 18.2906 17.9877 18.396 17.9837 18.5159L17.9206 20.4039L16.1429 21.0438C16.03 21.0844 15.9533 21.1897 15.9493 21.3096L15.9395 21.6009C15.3294 21.3937 14.6711 21.3934 14.0602 21.6009L14.0504 21.3096C14.0464 21.1897 13.9697 21.0844 13.8568 21.0438L12.0791 20.4039L12.0161 18.5159C12.0121 18.396 11.9354 18.2906 11.8225 18.25L10.0447 17.61L9.98104 15.7209C9.97705 15.601 9.90029 15.4957 9.78744 15.4551L8.00912 14.8152L7.94607 12.9266C7.94209 12.8067 7.86539 12.7014 7.75254 12.6608L5.9741 12.0203L5.91047 10.1316C5.90648 10.0118 5.82979 9.90652 5.71693 9.86586C4.54365 9.44328 4.93037 9.58256 3.7517 9.15804C3.74584 9.15763 3.61072 9.1008 3.47877 9.19771C1.56422 10.5921 2.4675 9.93418 1.11217 10.9212C0.981387 11.0165 0.952559 11.1997 1.04777 11.3305L10.3338 24.0821H1.52344C0.715723 24.0821 0.0585938 24.7392 0.0585938 25.5469C0.0585938 26.3547 0.715723 27.0118 1.52344 27.0118H28.4766C29.2843 27.0118 29.9414 26.3547 29.9414 25.5469C29.9414 24.7392 29.2843 24.0821 28.4766 24.0821ZM12.0703 26.4259H1.52344C1.03881 26.4259 0.644531 26.0316 0.644531 25.5469C0.644531 25.0623 1.03881 24.668 1.52344 24.668H12.0703V26.4259ZM12.085 24.0821H11.0587L1.69424 11.2225L2.64146 10.5327L12.17 23.6179C12.1298 23.7683 12.1008 23.9233 12.085 24.0821ZM15.293 24.668H14.707C14.5452 24.668 14.4141 24.5369 14.4141 24.3751C14.4141 24.2132 14.5452 24.0821 14.707 24.0821H15.293C15.4548 24.0821 15.5859 24.2132 15.5859 24.3751C15.5859 24.5369 15.4548 24.668 15.293 24.668ZM17.3438 26.4259H16.7578V24.3751C16.7578 23.4058 15.9693 22.6173 15 22.6173C14.0307 22.6173 13.2422 23.4058 13.2422 24.3751V26.4259H12.6562V24.3751C12.6562 23.0827 13.7077 22.0313 15 22.0313C16.2923 22.0313 17.3438 23.0827 17.3438 24.3751V26.4259ZM17.83 23.6179L27.3585 10.5327L28.3058 11.2225L18.9413 24.0821H17.915C17.8992 23.9233 17.8702 23.7683 17.83 23.6179ZM28.4766 26.4259H17.9297V24.668H28.4766C28.9612 24.668 29.3555 25.0623 29.3555 25.5469C29.3555 26.0316 28.9612 26.4259 28.4766 26.4259Z" fill="url(#paint2_linear_1_878)"/>
<defs>
<linearGradient id="paint0_linear_1_878" x1="11.1099" y1="8.26172" x2="19.1415" y2="9.06936" gradientUnits="userSpaceOnUse">
<stop stop-color="#2F7FAA"/>
<stop offset="1" stop-color="#58CAA4"/>
</linearGradient>
<linearGradient id="paint1_linear_1_878" x1="9.81324" y1="2.98828" x2="20.5776" y2="3.74129" gradientUnits="userSpaceOnUse">
<stop stop-color="#2F7FAA"/>
<stop offset="1" stop-color="#58CAA4"/>
</linearGradient>
<linearGradient id="paint2_linear_1_878" x1="-1.5328" y1="9.14111" x2="31.9983" y2="14.7794" gradientUnits="userSpaceOnUse">
<stop stop-color="#2F7FAA"/>
<stop offset="1" stop-color="#58CAA4"/>
</linearGradient>
</defs>
</svg>
