<svg width="30" height="30" viewBox="0 0 30 30" fill="none" xmlns="http://www.w3.org/2000/svg">
<g clip-path="url(#clip0_1_825)">
<path d="M29.4663 18.3195C28.0109 12.9389 23.9697 9.33743 20.4392 10.2745C19.0958 10.6309 16.9322 11.5335 15.4074 11.6364V10.1336H15.4034C15.4044 10.0466 15.4074 9.96968 15.4074 9.87968C15.4074 8.33933 14.1694 7.09341 12.6426 7.09341H8.62132C7.64973 7.09341 6.86204 6.29925 6.86204 5.32017C6.86204 4.3401 7.64973 3.54692 8.62132 3.54692H14.4018C14.9571 3.54692 15.4074 3.0926 15.4074 2.53286V0.506248C15.4074 0.226376 15.1825 0 14.9046 0C14.6272 0 14.4018 0.226866 14.4018 0.506248V1.52031C14.4018 2.52438 14.3609 2.5334 13.3963 2.5334H8.62088C7.09405 2.5334 5.85606 3.77986 5.85606 5.3207C5.85606 6.85953 7.09405 8.10698 8.62088 8.10698H12.6421C13.6137 8.10698 14.4013 8.90114 14.4013 9.88022C14.4013 9.97017 14.4048 10.0466 14.4059 10.1341H14.4013V11.645C12.8965 11.5385 10.7634 10.6339 9.43899 10.2756C5.95301 9.33498 1.9622 12.9539 0.524825 18.3596C-0.91206 23.7637 0.748752 28.91 4.23473 29.8516C6.83559 30.5533 9.71387 28.7121 11.6065 25.489C12.6521 25.7114 13.7546 25.8393 14.9041 25.8393C16.0681 25.8393 17.1846 25.6354 18.2432 25.415C20.1599 28.6231 23.0741 30.4558 25.708 29.7566C29.2394 28.8195 30.9217 23.6987 29.4663 18.3195ZM25.4461 28.782C23.0886 29.4077 20.4258 27.4891 18.7629 24.274C18.4286 24.3594 18.0872 24.4334 17.7379 24.4979H17.7384C16.8363 24.6628 15.8882 24.8257 14.9056 24.8257C13.9356 24.8257 12.9994 24.7332 12.1083 24.5669C12.1083 24.5658 12.1088 24.5658 12.1088 24.5658C11.764 24.5023 11.4261 24.4279 11.0963 24.3419C9.45398 27.5725 6.82462 29.5012 4.49663 28.8725C1.54687 28.0748 0.203998 23.4849 1.4974 18.6204C2.64941 14.2858 5.50467 11.2041 8.19948 11.1442C9.47794 11.2731 12.3982 12.6665 14.9056 12.6665V12.655C17.4445 12.655 20.4017 11.2691 21.6966 11.1407C24.426 11.2002 27.3168 14.2668 28.4837 18.5805C29.7927 23.4214 28.4328 27.9894 25.4461 28.782ZM19.9319 19.759C19.0993 19.759 18.4241 20.4397 18.4241 21.2783C18.4241 22.119 19.0993 22.7997 19.9319 22.7997C20.7646 22.7997 21.4398 22.119 21.4398 21.2783C21.4398 20.4402 20.7646 19.759 19.9319 19.759ZM19.9319 21.7861C19.6545 21.7861 19.4291 21.5597 19.4291 21.2788C19.4291 21 19.6541 20.773 19.9319 20.773C20.2093 20.773 20.4347 21 20.4347 21.2788C20.4347 21.5592 20.2093 21.7861 19.9319 21.7861ZM24.456 20.773C23.6234 20.773 22.9481 21.4532 22.9481 22.2924C22.9481 23.132 23.6234 23.8117 24.456 23.8117C25.2892 23.8117 25.9638 23.1315 25.9638 22.2924C25.9638 21.4532 25.2886 20.773 24.456 20.773ZM24.456 22.7996C24.1786 22.7996 23.9532 22.5732 23.9532 22.2924C23.9532 22.0135 24.1781 21.7861 24.456 21.7861C24.7339 21.7861 24.9588 22.0135 24.9588 22.2924C24.9583 22.5732 24.7334 22.7996 24.456 22.7996ZM9.87876 18.2396H7.86817V16.2135C7.86817 15.9336 7.64326 15.7052 7.3654 15.7052C7.08754 15.7052 6.86258 15.9336 6.86258 16.2135V18.2396H4.85194C4.57408 18.2396 4.34917 18.466 4.34917 18.7459C4.34917 19.0258 4.57408 19.2521 4.85194 19.2521H6.86253V21.2783C6.86253 21.5591 7.08744 21.7855 7.36535 21.7855C7.64273 21.7855 7.86812 21.5591 7.86812 21.2783V19.2521H9.87871C10.1561 19.2521 10.3815 19.0258 10.3815 18.7459C10.3816 18.466 10.1561 18.2396 9.87876 18.2396ZM24.456 16.2135C23.6234 16.2135 22.9481 16.8937 22.9481 17.7323C22.9481 18.572 23.6234 19.2527 24.456 19.2527C25.2892 19.2527 25.9638 18.5719 25.9638 17.7323C25.9638 16.8937 25.2886 16.2135 24.456 16.2135ZM24.456 18.2396C24.1786 18.2396 23.9532 18.0122 23.9532 17.7323C23.9532 17.4535 24.1781 17.2266 24.456 17.2266C24.7339 17.2266 24.9588 17.4535 24.9588 17.7323C24.9583 18.0122 24.7334 18.2396 24.456 18.2396ZM19.9319 15.1989C19.0993 15.1989 18.4241 15.8806 18.4241 16.7193C18.4241 17.5589 19.0993 18.2396 19.9319 18.2396C20.7646 18.2396 21.4398 17.5588 21.4398 16.7193C21.4398 15.8806 20.7646 15.1989 19.9319 15.1989ZM19.9319 17.2266C19.6545 17.2266 19.4291 17.0002 19.4291 16.7193C19.4291 16.4394 19.6541 16.2135 19.9319 16.2135C20.2093 16.2135 20.4347 16.4394 20.4347 16.7193C20.4347 16.9996 20.2093 17.2266 19.9319 17.2266Z" fill="url(#paint0_linear_1_825)"/>
</g>
<defs>
<linearGradient id="paint0_linear_1_825" x1="-1.58887" y1="3.40567e-07" x2="32.659" y2="3.44186" gradientUnits="userSpaceOnUse">
<stop stop-color="#2F7FAA"/>
<stop offset="1" stop-color="#58CAA4"/>
</linearGradient>
<clipPath id="clip0_1_825">
<rect width="30" height="30" fill="white"/>
</clipPath>
</defs>
</svg>
