<svg width="79" height="60" viewBox="0 0 79 60" fill="none" xmlns="http://www.w3.org/2000/svg">
<path d="M79 59.5L74.4969 48.8672L67.5402 58.0834L79 59.5ZM1.5 1L0.897531 1.79814L3.31941 3.62627L3.92188 2.82813L4.52434 2.02998L2.10247 0.201858L1.5 1ZM8.76563 6.48438L8.16316 7.28252L13.0069 10.9388L13.6094 10.1406L14.2118 9.34248L9.36809 5.68623L8.76563 6.48438ZM18.4531 13.7969L17.8507 14.595L22.6944 18.2513L23.2969 17.4531L23.8993 16.655L19.0556 12.9987L18.4531 13.7969ZM28.1406 21.1094L27.5382 21.9075L32.3819 25.5638L32.9844 24.7656L33.5868 23.9675L28.7431 20.3112L28.1406 21.1094ZM37.8281 28.4219L37.2257 29.22L42.0694 32.8763L42.6719 32.0781L43.2743 31.28L38.4306 27.6237L37.8281 28.4219ZM47.5156 35.7344L46.9132 36.5325L51.7569 40.1888L52.3594 39.3906L52.9618 38.5925L48.1181 34.9362L47.5156 35.7344ZM57.2031 43.0469L56.6007 43.845L61.4444 47.5013L62.0469 46.7031L62.6493 45.905L57.8056 42.2487L57.2031 43.0469ZM66.8906 50.3594L66.2882 51.1575L71.1319 54.8138L71.7344 54.0156L72.3368 53.2175L67.4931 49.5612L66.8906 50.3594Z" fill="#58CAA4"/>
</svg>
