<svg width="30" height="30" viewBox="0 0 30 30" fill="none" xmlns="http://www.w3.org/2000/svg">
<path d="M17.4852 18.9455C16.751 18.9455 16.041 18.7439 15.7334 18.0233L15.7325 18.0208C15.6313 17.7812 13.294 12.1131 16.1751 8.37709C18.3056 5.61493 22.663 4.68179 29.1253 5.60621L29.1285 5.60668C29.2273 5.62082 29.319 5.66612 29.3902 5.73599C29.4615 5.80586 29.5086 5.89665 29.5247 5.99514C29.5408 6.09364 29.525 6.1947 29.4797 6.28361C29.4343 6.37252 29.3618 6.44464 29.2727 6.48948C28.8531 7.1788 28.4905 7.90127 28.1887 8.64967C28.126 8.78907 28.0797 8.89093 28.0578 8.93603C27.4115 10.2116 26.9382 11.5676 26.6501 12.9682L26.6318 13.0632C26.4409 14.0627 26.2436 15.0966 25.4417 15.9148C24.8932 16.4376 24.2614 16.8652 23.5721 17.1799C22.2266 17.8482 20.8038 18.348 19.336 18.6681L19.1675 18.7056C18.6171 18.8463 18.053 18.9268 17.4852 18.9455ZM16.5963 17.6564C16.8588 18.2658 18.3321 17.9327 18.9615 17.7912L19.1364 17.7521C20.5288 17.4485 21.8784 16.9743 23.1547 16.3404C23.7496 16.0709 24.2961 15.7054 24.7724 15.2585C25.3762 14.6425 25.5387 13.7899 25.7108 12.8875L25.7291 12.792C26.0326 11.3102 26.5323 9.87543 27.215 8.52568C27.2347 8.48472 27.2768 8.39153 27.3345 8.26407C27.7163 7.41836 27.9946 6.83265 28.2138 6.4307C22.5445 5.73582 18.7441 6.58131 16.9176 8.94957C14.3665 12.2571 16.5033 17.4358 16.5963 17.6564Z" fill="url(#paint0_linear_1_748)"/>
<path d="M9.01618 20.1397C8.03864 20.1463 7.07331 19.9223 6.19862 19.4858C5.7803 19.2926 5.40511 19.0172 5.09537 18.676C4.87883 18.4089 4.6936 18.1178 4.54332 17.8085C4.43804 17.6099 4.30848 17.33 4.15698 17.0023C3.54404 15.6738 2.2802 12.9096 1.03599 13.1718C0.939752 13.1925 0.839442 13.1824 0.749287 13.1428C0.659133 13.1033 0.583709 13.0364 0.533712 12.9516C0.483715 12.8668 0.461682 12.7684 0.470738 12.6704C0.479794 12.5724 0.519479 12.4797 0.584165 12.4055C0.784649 12.1758 6.87062 8.72488 10.8083 10.4065C13.2711 11.4582 14.3212 14.1908 13.9289 18.5283C13.9054 18.7842 13.8575 19.3164 10.5254 19.9843C10.0287 20.0859 9.52316 20.1379 9.01618 20.1397ZM2.24035 12.5285C3.47724 13.292 4.39595 15.2826 5.00846 16.6094C5.15082 16.9182 5.27256 17.1823 5.37193 17.3696C5.49024 17.6158 5.6353 17.8482 5.80449 18.0626C6.03433 18.3095 6.31081 18.5083 6.61796 18.6476C7.77574 19.2054 9.08883 19.3526 10.3414 19.0651C11.2533 18.8953 12.1466 18.6371 13.0086 18.2942C13.3039 14.7433 12.5696 12.4438 10.8242 11.4578C8.3071 10.0364 4.16387 11.6015 2.24035 12.5285Z" fill="url(#paint1_linear_1_748)"/>
<path d="M15.1662 24.7389C15.1477 24.7389 15.1292 24.7378 15.1108 24.7358C14.9885 24.7214 14.8769 24.6595 14.7999 24.5634C14.7229 24.4673 14.6867 24.3449 14.6993 24.2224C14.703 24.1864 14.713 24.0911 14.7313 23.9452C15.3266 17.6727 6.88069 14.1413 6.79416 14.1058C6.73624 14.0832 6.68341 14.0492 6.63874 14.006C6.59407 13.9627 6.55845 13.911 6.53396 13.8538C6.50948 13.7967 6.49661 13.7352 6.49611 13.673C6.49561 13.6108 6.50749 13.5492 6.53105 13.4916C6.55462 13.4341 6.5894 13.3818 6.63337 13.3378C6.67734 13.2938 6.72962 13.2591 6.78717 13.2355C6.84472 13.2119 6.90638 13.2 6.96856 13.2005C7.03075 13.201 7.09221 13.2139 7.14938 13.2384C7.46569 13.3677 13.6088 15.9399 15.2829 20.8017C16.1238 17.03 18.0519 11.288 22.1715 9.61993C22.2288 9.59537 22.2904 9.58249 22.3528 9.58204C22.4151 9.5816 22.477 9.59361 22.5346 9.61736C22.5923 9.64111 22.6446 9.67613 22.6886 9.72036C22.7326 9.76459 22.7672 9.81715 22.7906 9.87496C22.814 9.93277 22.8256 9.99467 22.8248 10.057C22.824 10.1194 22.8107 10.1809 22.7858 10.2381C22.7609 10.2953 22.7248 10.3469 22.6797 10.3899C22.6345 10.433 22.5813 10.4666 22.523 10.4888C17.3191 12.5963 15.8621 22.4888 15.6584 24.0974C15.6502 24.1752 15.641 24.2537 15.6303 24.3323C15.6152 24.4447 15.5599 24.5479 15.4745 24.6227C15.3892 24.6974 15.2797 24.7388 15.1662 24.7389Z" fill="url(#paint2_linear_1_748)"/>
<defs>
<linearGradient id="paint0_linear_1_748" x1="13.9546" y1="5.26074" x2="30.8188" y2="7.09337" gradientUnits="userSpaceOnUse">
<stop stop-color="#2F7FAA"/>
<stop offset="1" stop-color="#58CAA4"/>
</linearGradient>
<linearGradient id="paint1_linear_1_748" x1="-0.252327" y1="9.94629" x2="15.0967" y2="11.9965" gradientUnits="userSpaceOnUse">
<stop stop-color="#2F7FAA"/>
<stop offset="1" stop-color="#58CAA4"/>
</linearGradient>
<linearGradient id="paint2_linear_1_748" x1="5.62651" y1="9.58203" x2="24.2483" y2="11.5994" gradientUnits="userSpaceOnUse">
<stop stop-color="#2F7FAA"/>
<stop offset="1" stop-color="#58CAA4"/>
</linearGradient>
</defs>
</svg>
