<svg width="35" height="35" viewBox="0 0 35 35" fill="none" xmlns="http://www.w3.org/2000/svg">
<path d="M17.5013 23.3346C20.3203 23.3346 22.6055 21.0494 22.6055 18.2305C22.6055 15.4115 20.3203 13.1263 17.5013 13.1263C14.6823 13.1263 12.3971 15.4115 12.3971 18.2305C12.3971 21.0494 14.6823 23.3346 17.5013 23.3346Z" fill="white"/>
<path fill-rule="evenodd" clip-rule="evenodd" d="M2.91797 17.5013C2.91797 12.0494 2.91797 9.32341 4.09025 7.29297C4.85822 5.9628 5.9628 4.85822 7.29297 4.09025C9.32341 2.91797 12.0494 2.91797 17.5013 2.91797C22.9532 2.91797 25.6792 2.91797 27.7096 4.09025C29.0398 4.85822 30.1444 5.9628 30.9124 7.29297C32.0846 9.32341 32.0846 12.0494 32.0846 17.5013C32.0846 22.9532 32.0846 25.6792 30.9124 27.7096C30.1444 29.0398 29.0398 30.1444 27.7096 30.9124C25.6792 32.0846 22.9532 32.0846 17.5013 32.0846C12.0494 32.0846 9.32341 32.0846 7.29297 30.9124C5.9628 30.1444 4.85822 29.0398 4.09025 27.7096C2.91797 25.6792 2.91797 22.9532 2.91797 17.5013ZM17.5013 25.5221C21.5284 25.5221 24.793 22.2575 24.793 18.2305C24.793 14.2034 21.5284 10.9388 17.5013 10.9388C13.4742 10.9388 10.2096 14.2034 10.2096 18.2305C10.2096 22.2575 13.4742 25.5221 17.5013 25.5221ZM24.0638 11.668C25.2719 11.668 26.2513 10.6886 26.2513 9.48047C26.2513 8.27235 25.2719 7.29297 24.0638 7.29297C22.8557 7.29297 21.8763 8.27235 21.8763 9.48047C21.8763 10.6886 22.8557 11.668 24.0638 11.668Z" fill="white"/>
</svg>
