<svg width="30" height="30" viewBox="0 0 30 30" fill="none" xmlns="http://www.w3.org/2000/svg">
<path d="M22.4023 19.2373C22.4023 18.9785 22.6123 18.7685 22.8711 18.7685C23.1299 18.7685 23.3398 18.9785 23.3398 19.2373V21.0537C23.3398 21.3125 23.1299 21.5225 22.8711 21.5225H22.8594H15.6054C15.3467 21.5225 15.1367 21.3125 15.1367 21.0537V21.042V17.4219C15.1367 17.1631 15.3467 16.9531 15.6054 16.9531H15.6172H22.8701C23.1289 16.9531 23.3389 17.163 23.3389 17.4219C23.3389 17.6807 23.1289 17.8906 22.8701 17.8906H16.0732V20.585H22.4003V19.2373L22.4023 19.2373Z" fill="url(#paint0_linear_1_728)"/>
<path d="M7.5977 25.8984C7.5977 26.1572 7.38775 26.3672 7.12893 26.3672C6.87011 26.3672 6.66016 26.1573 6.66016 25.8984V16.3174C6.66016 16.0587 6.87011 15.8487 7.12893 15.8487H7.14065H11.9717C12.2305 15.8487 12.4405 16.0596 12.4405 16.3174V16.3291V25.4297H26.6388V14.3272C26.6388 14.0684 26.8487 13.8584 27.1075 13.8584C27.3663 13.8584 27.5763 14.0683 27.5763 14.3272V25.8857V25.8984C27.5763 26.1572 27.3663 26.3672 27.1075 26.3672H11.9835H11.9718C11.713 26.3672 11.503 26.1573 11.503 25.8984V16.7861H7.59775V25.8984H7.5977Z" fill="url(#paint1_linear_1_728)"/>
<path d="M2.42188 14.3272C2.42188 14.0684 2.63183 13.8584 2.89065 13.8584C3.14947 13.8584 3.35942 14.0683 3.35942 14.3272V25.4287H5.00982C5.26859 25.4287 5.47859 25.6387 5.47859 25.8975C5.47859 26.1563 5.26864 26.3662 5.00982 26.3662H2.90335H2.89163C2.63286 26.3662 2.42286 26.1563 2.42286 25.8975V14.3272H2.42188Z" fill="url(#paint2_linear_1_728)"/>
<path d="M0.846205 11.0361C0.694833 11.2451 0.401891 11.291 0.192872 11.1406C-0.0160987 10.9892 -0.0620301 10.6963 0.0884111 10.4873L4.93219 3.82713C5.024 3.70115 5.16655 3.63477 5.31106 3.63477V3.63281H24.6861C24.8521 3.63281 24.9966 3.71874 25.0806 3.84865L29.9087 10.4873C30.0601 10.6963 30.0132 10.9893 29.8042 11.1407C29.5952 11.292 29.3023 11.2452 29.1509 11.0362L24.4488 4.57036H5.54836L0.846205 11.0361ZM25.0806 3.84865L25.1548 4.10159C25.1548 4.00879 25.1275 3.92188 25.0806 3.84865Z" fill="url(#paint3_linear_1_728)"/>
<path d="M29.0625 10.7617C29.0625 10.503 29.2725 10.293 29.5313 10.293C29.7901 10.293 30 10.5029 30 10.7617C30 11.3926 29.7432 11.9649 29.3311 12.378C28.918 12.7911 28.3457 13.0469 27.7148 13.0469C27.084 13.0469 26.5117 12.791 26.0986 12.378C25.6855 11.9649 25.4297 11.3926 25.4297 10.7617C25.4297 10.503 25.6407 10.293 25.8985 10.293C26.1572 10.293 26.3672 10.5029 26.3672 10.7617C26.3672 11.1338 26.5186 11.4707 26.7618 11.7149C27.0059 11.958 27.3429 12.1094 27.7148 12.1094C28.0868 12.1094 28.4238 11.958 28.6679 11.7149C28.9112 11.4707 29.0625 11.1338 29.0625 10.7617Z" fill="url(#paint4_linear_1_728)"/>
<path d="M6.52346 6.99219C6.26469 6.99219 6.05469 6.78224 6.05469 6.52341C6.05469 6.26459 6.26464 6.05469 6.52346 6.05469H23.4766C23.7354 6.05469 23.9454 6.26464 23.9454 6.52341C23.9454 6.78224 23.7354 6.99219 23.4766 6.99219H6.52346Z" fill="url(#paint5_linear_1_728)"/>
<path d="M21.7969 10.7617C21.7969 10.503 22.0068 10.293 22.2656 10.293C22.5244 10.293 22.7344 10.5029 22.7344 10.7617C22.7344 11.1338 22.8857 11.4707 23.1289 11.7149L23.1524 11.7403C23.3936 11.9688 23.7208 12.1094 24.0821 12.1094C24.4542 12.1094 24.7911 11.958 25.0352 11.7149C25.2793 11.4708 25.4297 11.1338 25.4297 10.7617C25.4297 10.503 25.6407 10.293 25.8985 10.293C26.1573 10.293 26.3672 10.5029 26.3672 10.7617C26.3672 11.3926 26.1105 11.9649 25.6983 12.378C25.2852 12.7911 24.7129 13.0469 24.0821 13.0469C23.4678 13.0469 22.9102 12.8038 22.4991 12.4072L22.4668 12.3779C22.0528 11.9649 21.7969 11.3926 21.7969 10.7617Z" fill="url(#paint6_linear_1_728)"/>
<path d="M14.5312 10.7617C14.5312 10.503 14.7412 10.293 15 10.293C15.2588 10.293 15.4688 10.5029 15.4688 10.7617C15.4688 11.1338 15.6202 11.4707 15.8634 11.7149C16.1074 11.958 16.4444 12.1094 16.8164 12.1094C17.1884 12.1094 17.5254 11.958 17.7695 11.7149C18.0127 11.4708 18.164 11.1338 18.164 10.7617C18.164 10.503 18.374 10.293 18.6328 10.293C18.8916 10.293 19.1015 10.5029 19.1015 10.7617C19.1015 11.3926 18.8447 11.9649 18.4326 12.378C18.0195 12.7911 17.4472 13.0469 16.8163 13.0469C16.1855 13.0469 15.6132 12.791 15.2001 12.378C14.7872 11.9649 14.5312 11.3926 14.5312 10.7617Z" fill="url(#paint7_linear_1_728)"/>
<path d="M21.7969 10.7617C21.7969 10.503 22.0068 10.293 22.2656 10.293C22.5244 10.293 22.7344 10.5029 22.7344 10.7617C22.7344 11.3926 22.4775 11.9649 22.0654 12.378C21.6523 12.7911 21.08 13.0469 20.4492 13.0469C19.8184 13.0469 19.2461 12.791 18.833 12.378C18.4198 11.9649 18.1641 11.3926 18.1641 10.7617C18.1641 10.503 18.374 10.293 18.6328 10.293C18.8916 10.293 19.1016 10.5029 19.1016 10.7617C19.1016 11.1338 19.2529 11.4707 19.4961 11.7149C19.7402 11.958 20.0772 12.1094 20.4492 12.1094C20.8212 12.1094 21.1582 11.958 21.4023 11.7149C21.6455 11.4707 21.7969 11.1338 21.7969 10.7617Z" fill="url(#paint8_linear_1_728)"/>
<path d="M14.5314 10.7617C14.5314 10.503 14.7413 10.293 15.0002 10.293C15.259 10.293 15.4689 10.5029 15.4689 10.7617C15.4689 11.3926 15.213 11.9649 14.8 12.378L14.7678 12.4073C14.3557 12.8038 13.7971 13.0469 13.1838 13.0469C12.5529 13.0469 11.9807 12.7911 11.5676 12.378C11.1545 11.965 10.8987 11.3927 10.8987 10.7618C10.8987 10.503 11.1086 10.293 11.3675 10.293C11.6263 10.293 11.8362 10.503 11.8362 10.7618C11.8362 11.1339 11.9876 11.4708 12.2307 11.7149C12.4749 11.9581 12.8118 12.1094 13.1839 12.1094C13.5452 12.1094 13.8724 11.9688 14.1126 11.7403L14.136 11.7149C14.38 11.4707 14.5314 11.1338 14.5314 10.7617Z" fill="url(#paint9_linear_1_728)"/>
<path d="M7.26562 10.7617C7.26562 10.503 7.47558 10.293 7.7344 10.293C7.99322 10.293 8.20317 10.5029 8.20317 10.7617C8.20317 11.1338 8.35455 11.4707 8.59768 11.7149C8.8418 11.958 9.17876 12.1094 9.55082 12.1094C9.92288 12.1094 10.2598 11.958 10.504 11.7149C10.7471 11.4708 10.8985 11.1338 10.8985 10.7617C10.8985 10.503 11.1084 10.293 11.3672 10.293C11.6261 10.293 11.836 10.5029 11.836 10.7617C11.836 11.3926 11.5801 11.9649 11.1671 12.378C10.7541 12.7911 10.1818 13.0469 9.55087 13.0469C8.91999 13.0469 8.34773 12.791 7.93465 12.378C7.52156 11.9649 7.26562 11.3926 7.26562 10.7617Z" fill="url(#paint10_linear_1_728)"/>
<path d="M7.26561 10.7618C7.26561 10.503 7.47556 10.293 7.73438 10.293C7.9932 10.293 8.20316 10.503 8.20316 10.7618C8.20316 11.3927 7.94727 11.9649 7.53423 12.378C7.12119 12.7911 6.54889 13.0469 5.91801 13.0469C5.28811 13.0469 4.71781 12.7911 4.30374 12.376L4.30276 12.378C3.88968 11.9649 3.63281 11.3926 3.63281 10.7617C3.63281 10.503 3.84276 10.293 4.10159 10.293C4.36041 10.293 4.57036 10.5029 4.57036 10.7617C4.57036 11.1338 4.72173 11.4707 4.96487 11.7149V11.7159L4.96585 11.7168C5.20801 11.959 5.54492 12.1094 5.91801 12.1094C6.29007 12.1094 6.62698 11.9581 6.87115 11.7149C7.11423 11.4708 7.26561 11.1339 7.26561 10.7618Z" fill="url(#paint11_linear_1_728)"/>
<path d="M0 10.7617C0 10.503 0.209951 10.293 0.468774 10.293C0.727598 10.293 0.937549 10.5029 0.937549 10.7617C0.937549 11.1338 1.08892 11.4707 1.33206 11.7149C1.57618 11.958 1.91314 12.1094 2.2852 12.1094C2.65725 12.1094 2.99417 11.958 3.23833 11.7149C3.48147 11.4708 3.63284 11.1338 3.63284 10.7617C3.63284 10.503 3.84279 10.293 4.10162 10.293C4.36044 10.293 4.57039 10.5029 4.57039 10.7617C4.57039 11.3926 4.31451 11.9649 3.90147 12.378C3.48843 12.7911 2.91711 13.0469 2.28525 13.0469C1.65338 13.0469 1.08211 12.791 0.66902 12.378C0.255931 11.9649 0 11.3926 0 10.7617Z" fill="url(#paint12_linear_1_728)"/>
<defs>
<linearGradient id="paint0_linear_1_728" x1="14.6999" y1="16.9531" x2="23.866" y2="18.6078" gradientUnits="userSpaceOnUse">
<stop stop-color="#2F7FAA"/>
<stop offset="1" stop-color="#58CAA4"/>
</linearGradient>
<linearGradient id="paint1_linear_1_728" x1="5.54628" y1="13.8584" x2="29.016" y2="17.8047" gradientUnits="userSpaceOnUse">
<stop stop-color="#2F7FAA"/>
<stop offset="1" stop-color="#58CAA4"/>
</linearGradient>
<linearGradient id="paint2_linear_1_728" x1="2.25909" y1="13.8584" x2="5.78384" y2="13.945" gradientUnits="userSpaceOnUse">
<stop stop-color="#2F7FAA"/>
<stop offset="1" stop-color="#58CAA4"/>
</linearGradient>
<linearGradient id="paint3_linear_1_728" x1="-1.5975" y1="3.63281" x2="28.2999" y2="15.5046" gradientUnits="userSpaceOnUse">
<stop stop-color="#2F7FAA"/>
<stop offset="1" stop-color="#58CAA4"/>
</linearGradient>
<linearGradient id="paint4_linear_1_728" x1="25.1863" y1="10.293" x2="30.3167" y2="11.1491" gradientUnits="userSpaceOnUse">
<stop stop-color="#2F7FAA"/>
<stop offset="1" stop-color="#58CAA4"/>
</linearGradient>
<linearGradient id="paint5_linear_1_728" x1="5.10193" y1="6.05469" x2="9.51032" y2="14.5144" gradientUnits="userSpaceOnUse">
<stop stop-color="#2F7FAA"/>
<stop offset="1" stop-color="#58CAA4"/>
</linearGradient>
<linearGradient id="paint6_linear_1_728" x1="21.5535" y1="10.293" x2="26.6839" y2="11.1492" gradientUnits="userSpaceOnUse">
<stop stop-color="#2F7FAA"/>
<stop offset="1" stop-color="#58CAA4"/>
</linearGradient>
<linearGradient id="paint7_linear_1_728" x1="14.2879" y1="10.293" x2="19.4182" y2="11.1491" gradientUnits="userSpaceOnUse">
<stop stop-color="#2F7FAA"/>
<stop offset="1" stop-color="#58CAA4"/>
</linearGradient>
<linearGradient id="paint8_linear_1_728" x1="17.9207" y1="10.293" x2="23.0511" y2="11.1491" gradientUnits="userSpaceOnUse">
<stop stop-color="#2F7FAA"/>
<stop offset="1" stop-color="#58CAA4"/>
</linearGradient>
<linearGradient id="paint9_linear_1_728" x1="10.6553" y1="10.293" x2="15.7856" y2="11.1491" gradientUnits="userSpaceOnUse">
<stop stop-color="#2F7FAA"/>
<stop offset="1" stop-color="#58CAA4"/>
</linearGradient>
<linearGradient id="paint10_linear_1_728" x1="7.02223" y1="10.293" x2="12.1527" y2="11.1492" gradientUnits="userSpaceOnUse">
<stop stop-color="#2F7FAA"/>
<stop offset="1" stop-color="#58CAA4"/>
</linearGradient>
<linearGradient id="paint11_linear_1_728" x1="3.38942" y1="10.293" x2="8.51986" y2="11.1491" gradientUnits="userSpaceOnUse">
<stop stop-color="#2F7FAA"/>
<stop offset="1" stop-color="#58CAA4"/>
</linearGradient>
<linearGradient id="paint12_linear_1_728" x1="-0.243394" y1="10.293" x2="4.88709" y2="11.1492" gradientUnits="userSpaceOnUse">
<stop stop-color="#2F7FAA"/>
<stop offset="1" stop-color="#58CAA4"/>
</linearGradient>
</defs>
</svg>
