<svg width="30" height="30" viewBox="0 0 30 30" fill="none" xmlns="http://www.w3.org/2000/svg">
<path d="M18.2225 14.4146C16.2841 14.4146 14.707 15.9916 14.707 17.93C14.707 19.8684 16.2841 21.4455 18.2225 21.4455C20.1609 21.4455 21.7379 19.8684 21.7379 17.93C21.7379 15.9916 20.1609 14.4146 18.2225 14.4146ZM19.1014 17.6371C19.2632 17.6371 19.3944 17.7682 19.3944 17.9301V19.3948C19.3944 19.5567 19.2632 19.6878 19.1014 19.6878H18.5154V19.9808C18.5154 20.1426 18.3843 20.2738 18.2225 20.2738C18.0606 20.2738 17.9295 20.1426 17.9295 19.9808V19.6878H17.3436C17.1817 19.6878 17.0506 19.5567 17.0506 19.3948C17.0506 19.233 17.1817 19.1019 17.3436 19.1019H18.8084V18.223H17.3436C17.1817 18.223 17.0506 18.0919 17.0506 17.9301V16.4653C17.0506 16.3034 17.1817 16.1723 17.3436 16.1723H17.9295V15.8793C17.9295 15.7175 18.0606 15.5864 18.2225 15.5864C18.3843 15.5864 18.5154 15.7175 18.5154 15.8793V16.1723H19.1014C19.2632 16.1723 19.3944 16.3034 19.3944 16.4653C19.3944 16.6271 19.2632 16.7582 19.1014 16.7582H17.6366V17.6371H19.1014Z" fill="url(#paint0_linear_1_849)"/>
<path d="M22.2461 6.57498C23.5488 3.49664 21.2858 0.0600586 17.9295 0.0600586C15.3449 0.0600586 13.2422 2.16275 13.2422 4.74732C13.2422 5.93168 13.6851 7.0623 14.4894 7.93084C15.1938 8.69156 16.119 9.19166 17.1284 9.36551C16.8898 9.92719 16.7576 10.5446 16.7576 11.1923C16.7576 11.9439 16.9369 12.6775 17.2781 13.3386C15.1446 13.7767 13.5352 15.6691 13.5352 17.9303C13.5352 20.5148 15.6379 22.6175 18.2224 22.6175C21.7491 22.6175 23.9818 18.8661 22.3874 15.7843C24.5505 15.3459 26.1322 13.4435 26.1322 11.1923C26.1322 8.881 24.4501 6.95637 22.2461 6.57498ZM13.8281 4.74732C13.8281 2.48584 15.668 0.645938 17.9295 0.645938C20.9419 0.645938 22.9242 3.80057 21.6328 6.50982C21.421 6.50144 21.2163 6.50361 20.9591 6.53021C22.3296 4.20738 20.6542 1.23188 17.9294 1.23188C15.991 1.23182 14.4139 2.80887 14.4139 4.74732C14.4139 6.63984 15.9173 8.18701 17.7925 8.25932C17.6513 8.43469 17.5226 8.62031 17.4076 8.81508C15.3861 8.55709 13.8281 6.80508 13.8281 4.74732ZM18.8083 4.45436C18.9701 4.45436 19.1013 4.58549 19.1013 4.74732V6.21211C19.1013 6.37395 18.9701 6.50508 18.8083 6.50508H18.2224V6.79805C18.2224 6.95988 18.0912 7.09102 17.9294 7.09102C17.7676 7.09102 17.6364 6.95988 17.6364 6.79805V6.50508H17.0505C16.8887 6.50508 16.7575 6.37395 16.7575 6.21211C16.7575 6.05027 16.8887 5.91914 17.0505 5.91914H18.5153V5.04023H17.0505C16.8887 5.04023 16.7575 4.9091 16.7575 4.74727V3.28254C16.7575 3.1207 16.8887 2.98957 17.0505 2.98957H17.6364V2.6966C17.6364 2.53477 17.7676 2.40363 17.9294 2.40363C18.0912 2.40363 18.2224 2.53477 18.2224 2.6966V2.98957H18.8083C18.9701 2.98957 19.1013 3.1207 19.1013 3.28254C19.1013 3.44438 18.9701 3.57551 18.8083 3.57551H17.3435V4.45436H18.8083ZM18.2224 22.0317C15.9609 22.0317 14.121 20.1918 14.121 17.9303C14.121 15.6688 15.9609 13.8289 18.2224 13.8289C20.4838 13.8289 22.3237 15.6688 22.3237 17.9303C22.3237 20.1918 20.4838 22.0317 18.2224 22.0317ZM20.5661 11.4853C20.4042 11.4853 20.2731 11.3541 20.2731 11.1923V9.7275C20.2731 9.56566 20.4042 9.43453 20.5661 9.43453H21.152V9.14156C21.152 8.97973 21.2831 8.84859 21.445 8.84859C21.6068 8.84859 21.7379 8.97973 21.7379 9.14156V9.43453H22.3239C22.4857 9.43453 22.6168 9.56566 22.6168 9.7275C22.6168 9.88934 22.4857 10.0205 22.3239 10.0205H20.8591V10.8993H22.3239C22.4857 10.8993 22.6168 11.0304 22.6168 11.1923V12.6571C22.6168 12.8189 22.4857 12.95 22.3239 12.95H21.7379V13.243C21.7379 13.4048 21.6068 13.536 21.445 13.536C21.2831 13.536 21.152 13.4048 21.152 13.243V12.95H20.5661C20.4042 12.95 20.2731 12.8189 20.2731 12.6571C20.2731 12.4952 20.4042 12.3641 20.5661 12.3641H22.0308V11.4853H20.5661ZM22.062 15.2466C21.9272 15.0544 21.7785 14.873 21.6172 14.7034C23.4759 14.6132 24.9604 13.073 24.9604 11.1923C24.9604 9.25389 23.3833 7.67684 21.4449 7.67684C19.5065 7.67684 17.9295 9.25389 17.9295 11.1923C17.9295 11.947 18.1684 12.6657 18.6014 13.2596C18.4763 13.2496 18.3501 13.243 18.2224 13.243C18.114 13.243 18.0069 13.248 17.9003 13.2553C17.5358 12.6305 17.3436 11.9211 17.3436 11.1923C17.3436 8.9308 19.1835 7.0909 21.445 7.0909C23.7064 7.0909 25.5463 8.9308 25.5463 11.1923C25.5463 13.2337 24.0601 14.9469 22.062 15.2466Z" fill="url(#paint1_linear_1_849)"/>
<path d="M28.1835 10.8994H27.0117C26.8499 10.8994 26.7188 11.0305 26.7188 11.1924C26.7188 11.3542 26.8499 11.4854 27.0117 11.4854H28.1835C28.3454 11.4854 28.4765 11.3542 28.4765 11.1924C28.4764 11.0305 28.3453 10.8994 28.1835 10.8994Z" fill="url(#paint2_linear_1_849)"/>
<path d="M26.5881 9.04106L27.6439 8.53264C27.7897 8.46244 27.851 8.28736 27.7808 8.14158C27.7105 7.9958 27.5355 7.9344 27.3897 8.00471L26.3339 8.51313C26.1881 8.58332 26.1268 8.7584 26.197 8.90418C26.2675 9.05049 26.4428 9.11107 26.5881 9.04106Z" fill="url(#paint3_linear_1_849)"/>
<path d="M24.7314 7.06949C24.8579 7.17033 25.0422 7.14959 25.1431 7.02308L25.8737 6.10697C25.9746 5.98052 25.9538 5.79619 25.8273 5.69529C25.7009 5.59445 25.5166 5.61507 25.4156 5.74169L24.685 6.65781C24.5841 6.78425 24.6049 6.96859 24.7314 7.06949Z" fill="url(#paint4_linear_1_849)"/>
<path d="M25.1431 15.3613C25.0422 15.2348 24.8579 15.214 24.7314 15.3149C24.6049 15.4158 24.5841 15.6001 24.685 15.7266L25.4156 16.6427C25.5167 16.7694 25.701 16.7897 25.8273 16.6891C25.9538 16.5882 25.9746 16.4038 25.8737 16.2774L25.1431 15.3613Z" fill="url(#paint5_linear_1_849)"/>
<path d="M27.6439 13.8519L26.5881 13.3435C26.4424 13.2734 26.2673 13.3346 26.197 13.4804C26.1268 13.6261 26.1881 13.8012 26.3339 13.8714L27.3897 14.3798C27.5349 14.4498 27.7103 14.3893 27.7808 14.243C27.851 14.0972 27.7897 13.9221 27.6439 13.8519Z" fill="url(#paint6_linear_1_849)"/>
<path d="M12.1482 9.74451C12.1083 8.71531 11.3742 7.81045 10.4024 7.84086C11.5453 2.33052 11.5867 2.50496 11.5671 1.99677C11.5385 1.2592 11.1689 0.597496 10.6028 0.270192C9.6549 -0.27848 8.55094 0.288297 8.23395 1.41207L6.53344 7.44072C6.26619 8.38883 6.15035 9.379 6.18932 10.3837L6.30727 13.4294C6.33035 14.0251 6.20502 14.8694 5.78502 15.4602L5.73223 15.5206L5.60947 15.4331C5.47764 15.3392 5.29172 15.3697 5.19809 15.5058L4.49695 16.5261L4.18975 16.3151C4.06084 16.2264 3.88506 16.2549 3.79055 16.3794L1.58309 19.2877C1.54441 19.3386 1.52344 19.4009 1.52344 19.4648V29.6484C1.52344 29.8102 1.65457 29.9414 1.81641 29.9414H5.08822C5.18273 29.9414 5.2715 29.8958 5.32647 29.8188L11.255 21.5312C11.3503 21.398 11.3179 21.2122 11.1826 21.1193L10.7225 20.8033L11.3568 19.8797C11.4472 19.748 11.4154 19.568 11.2852 19.4753L10.85 19.1654C11.5955 17.588 11.9716 16.1239 12.1322 15.3722C12.2636 14.7562 12.3176 14.1172 12.2926 13.4729L12.1482 9.74451ZM4.93752 29.3554H2.10932V19.5634L4.08826 16.9562L10.6048 21.4332L4.93752 29.3554ZM11.5592 15.2499C11.4073 15.9611 11.0558 17.3326 10.3651 18.82L6.21182 15.862C6.58523 15.4292 6.9334 14.4573 6.89274 13.4066L6.77479 10.361C6.73822 9.41761 6.84674 8.48855 7.0974 7.59963L8.79791 1.57103C9.00568 0.834332 9.68443 0.415621 10.3094 0.777204C10.7031 1.00496 10.9608 1.48086 10.9816 2.01933C10.9965 2.40213 11.003 2.08853 9.76869 8.0055C9.12475 8.33761 8.75426 9.09259 8.78455 9.87465L8.92904 13.6064C8.93531 13.7681 9.0716 13.8948 9.23309 13.8878C9.39481 13.8816 9.52078 13.7454 9.51451 13.5838L9.37002 9.85197C9.35525 9.47193 9.46201 9.11281 9.67084 8.84064C9.86701 8.58441 10.1304 8.43734 10.4126 8.42638C10.9504 8.40476 11.5304 8.92736 11.5629 9.76713L11.7073 13.4956C11.7302 14.0913 11.6804 14.6816 11.5592 15.2499Z" fill="url(#paint7_linear_1_849)"/>
<path d="M8.13272 21.5843L8.80344 22.0708C8.93463 22.166 9.1178 22.1363 9.21254 22.0057C9.30758 21.8747 9.2784 21.6915 9.14745 21.5966L8.47672 21.1101C8.34588 21.0151 8.1626 21.0441 8.06762 21.1751C7.97253 21.3061 8.0017 21.4893 8.13272 21.5843Z" fill="url(#paint8_linear_1_849)"/>
<defs>
<linearGradient id="paint0_linear_1_849" x1="14.3326" y1="14.4146" x2="22.3637" y2="15.2221" gradientUnits="userSpaceOnUse">
<stop stop-color="#2F7FAA"/>
<stop offset="1" stop-color="#58CAA4"/>
</linearGradient>
<linearGradient id="paint1_linear_1_849" x1="12.5557" y1="0.0600588" x2="27.3794" y2="0.911856" gradientUnits="userSpaceOnUse">
<stop stop-color="#2F7FAA"/>
<stop offset="1" stop-color="#58CAA4"/>
</linearGradient>
<linearGradient id="paint2_linear_1_849" x1="26.6251" y1="10.8994" x2="28.4841" y2="11.4602" gradientUnits="userSpaceOnUse">
<stop stop-color="#2F7FAA"/>
<stop offset="1" stop-color="#58CAA4"/>
</linearGradient>
<linearGradient id="paint3_linear_1_849" x1="26.0805" y1="7.97559" x2="27.9328" y2="8.25498" gradientUnits="userSpaceOnUse">
<stop stop-color="#2F7FAA"/>
<stop offset="1" stop-color="#58CAA4"/>
</linearGradient>
<linearGradient id="paint4_linear_1_849" x1="24.551" y1="5.63135" x2="26.0583" y2="5.7642" gradientUnits="userSpaceOnUse">
<stop stop-color="#2F7FAA"/>
<stop offset="1" stop-color="#58CAA4"/>
</linearGradient>
<linearGradient id="paint5_linear_1_849" x1="24.551" y1="15.251" x2="26.0583" y2="15.3838" gradientUnits="userSpaceOnUse">
<stop stop-color="#2F7FAA"/>
<stop offset="1" stop-color="#58CAA4"/>
</linearGradient>
<linearGradient id="paint6_linear_1_849" x1="26.0805" y1="13.3145" x2="27.9328" y2="13.5939" gradientUnits="userSpaceOnUse">
<stop stop-color="#2F7FAA"/>
<stop offset="1" stop-color="#58CAA4"/>
</linearGradient>
<linearGradient id="paint7_linear_1_849" x1="0.949615" y1="0.0585941" x2="13.3657" y2="0.508794" gradientUnits="userSpaceOnUse">
<stop stop-color="#2F7FAA"/>
<stop offset="1" stop-color="#58CAA4"/>
</linearGradient>
<linearGradient id="paint8_linear_1_849" x1="7.94479" y1="21.0542" x2="9.37492" y2="21.2227" gradientUnits="userSpaceOnUse">
<stop stop-color="#2F7FAA"/>
<stop offset="1" stop-color="#58CAA4"/>
</linearGradient>
</defs>
</svg>
