<svg width="30" height="30" viewBox="0 0 30 30" fill="none" xmlns="http://www.w3.org/2000/svg">
<path d="M3.28125 2.34375V4.21875" stroke="url(#paint0_linear_1_712)" stroke-linecap="round" stroke-linejoin="round"/>
<path d="M2.34375 3.28125H4.21875" stroke="url(#paint1_linear_1_712)" stroke-linecap="round" stroke-linejoin="round"/>
<path d="M7.75895 2.47884C8.03573 2.47884 8.26009 2.25448 8.26009 1.9777C8.26009 1.70093 8.03573 1.47656 7.75895 1.47656C7.48218 1.47656 7.25781 1.70093 7.25781 1.9777C7.25781 2.25448 7.48218 2.47884 7.75895 2.47884Z" fill="url(#paint2_linear_1_712)"/>
<path d="M26.0402 26.8538C26.317 26.8538 26.5413 26.6295 26.5413 26.3527C26.5413 26.0759 26.317 25.8516 26.0402 25.8516C25.7634 25.8516 25.5391 26.0759 25.5391 26.3527C25.5391 26.6295 25.7634 26.8538 26.0402 26.8538Z" fill="url(#paint3_linear_1_712)"/>
<path d="M15 21.0938C18.3655 21.0938 21.0938 18.3655 21.0938 15C21.0938 11.6345 18.3655 8.90625 15 8.90625C11.6345 8.90625 8.90625 11.6345 8.90625 15C8.90625 18.3655 11.6345 21.0938 15 21.0938Z" stroke="url(#paint4_linear_1_712)" stroke-linecap="round" stroke-linejoin="round"/>
<path d="M15.9375 13.5938H14.5312V16.4062" stroke="url(#paint5_linear_1_712)" stroke-linecap="round" stroke-linejoin="round"/>
<path d="M15.9375 15H14.5312" stroke="url(#paint6_linear_1_712)" stroke-linecap="round" stroke-linejoin="round"/>
<path d="M13.125 15.4688L11.25 13.5938V16.4062" stroke="url(#paint7_linear_1_712)" stroke-linecap="round" stroke-linejoin="round"/>
<path d="M13.125 13.5938V16.4062" stroke="url(#paint8_linear_1_712)" stroke-linecap="round" stroke-linejoin="round"/>
<path d="M17.3438 13.5938H19.2188" stroke="url(#paint9_linear_1_712)" stroke-linecap="round" stroke-linejoin="round"/>
<path d="M18.2812 16.4062V13.5938" stroke="url(#paint10_linear_1_712)" stroke-linecap="round" stroke-linejoin="round"/>
<path d="M15 2.8125C12.5895 2.8125 10.2332 3.52728 8.22899 4.86646C6.22477 6.20564 4.66267 8.10907 3.74022 10.336C2.81778 12.563 2.57643 15.0135 3.04668 17.3777C3.51694 19.7418 4.67769 21.9134 6.38214 23.6179C8.08659 25.3223 10.2582 26.4831 12.6223 26.9533C14.9865 27.4236 17.437 27.1822 19.664 26.2598C21.8909 25.3373 23.7944 23.7752 25.1335 21.771C26.4727 19.7668 27.1875 17.4105 27.1875 15C27.1838 11.7688 25.8986 8.67104 23.6138 6.38625C21.329 4.10145 18.2312 2.81622 15 2.8125ZM15 25.7812C12.2695 25.7827 9.64102 24.744 7.64911 22.8764L9.59865 20.9269L8.60438 19.9326L6.68349 21.8535C4.97753 19.7864 4.10313 17.1577 4.23097 14.4805C4.35881 11.8034 5.47971 9.27 7.37488 7.37483C9.27005 5.47965 11.8035 4.35874 14.4806 4.23089C17.1577 4.10304 19.7864 4.97744 21.8536 6.68339L20.1668 8.37L21.1611 9.36427L22.8767 7.64902C24.3116 9.18337 25.2666 11.1038 25.6242 13.1739C25.9818 15.244 25.7264 17.3735 24.8894 19.3003C24.0524 21.2271 22.6703 22.8672 20.9132 24.0187C19.1562 25.1702 17.1008 25.7828 15 25.7812Z" stroke="url(#paint11_linear_1_712)" stroke-linecap="round" stroke-linejoin="round"/>
<defs>
<linearGradient id="paint0_linear_1_712" x1="3.228" y1="2.34375" x2="4.3785" y2="2.40545" gradientUnits="userSpaceOnUse">
<stop stop-color="#2F7FAA"/>
<stop offset="1" stop-color="#58CAA4"/>
</linearGradient>
<linearGradient id="paint1_linear_1_712" x1="2.2439" y1="3.28125" x2="4.33303" y2="3.67515" gradientUnits="userSpaceOnUse">
<stop stop-color="#2F7FAA"/>
<stop offset="1" stop-color="#58CAA4"/>
</linearGradient>
<linearGradient id="paint2_linear_1_712" x1="7.20444" y1="1.47656" x2="8.3493" y2="1.59169" gradientUnits="userSpaceOnUse">
<stop stop-color="#2F7FAA"/>
<stop offset="1" stop-color="#58CAA4"/>
</linearGradient>
<linearGradient id="paint3_linear_1_712" x1="25.4857" y1="25.8516" x2="26.6306" y2="25.9667" gradientUnits="userSpaceOnUse">
<stop stop-color="#2F7FAA"/>
<stop offset="1" stop-color="#58CAA4"/>
</linearGradient>
<linearGradient id="paint4_linear_1_712" x1="8.25721" y1="8.90625" x2="22.1785" y2="10.3062" gradientUnits="userSpaceOnUse">
<stop stop-color="#2F7FAA"/>
<stop offset="1" stop-color="#58CAA4"/>
</linearGradient>
<linearGradient id="paint5_linear_1_712" x1="14.4564" y1="13.5938" x2="16.0748" y2="13.6751" gradientUnits="userSpaceOnUse">
<stop stop-color="#2F7FAA"/>
<stop offset="1" stop-color="#58CAA4"/>
</linearGradient>
<linearGradient id="paint6_linear_1_712" x1="14.4564" y1="15" x2="16.0471" y2="15.2249" gradientUnits="userSpaceOnUse">
<stop stop-color="#2F7FAA"/>
<stop offset="1" stop-color="#58CAA4"/>
</linearGradient>
<linearGradient id="paint7_linear_1_712" x1="11.1501" y1="13.5938" x2="13.3039" y2="13.7381" gradientUnits="userSpaceOnUse">
<stop stop-color="#2F7FAA"/>
<stop offset="1" stop-color="#58CAA4"/>
</linearGradient>
<linearGradient id="paint8_linear_1_712" x1="13.0717" y1="13.5938" x2="14.2241" y2="13.635" gradientUnits="userSpaceOnUse">
<stop stop-color="#2F7FAA"/>
<stop offset="1" stop-color="#58CAA4"/>
</linearGradient>
<linearGradient id="paint9_linear_1_712" x1="17.2439" y1="13.5938" x2="19.333" y2="13.9876" gradientUnits="userSpaceOnUse">
<stop stop-color="#2F7FAA"/>
<stop offset="1" stop-color="#58CAA4"/>
</linearGradient>
<linearGradient id="paint10_linear_1_712" x1="18.228" y1="13.5938" x2="19.3803" y2="13.635" gradientUnits="userSpaceOnUse">
<stop stop-color="#2F7FAA"/>
<stop offset="1" stop-color="#58CAA4"/>
</linearGradient>
<linearGradient id="paint11_linear_1_712" x1="1.51442" y1="2.8125" x2="29.3571" y2="5.61231" gradientUnits="userSpaceOnUse">
<stop stop-color="#2F7FAA"/>
<stop offset="1" stop-color="#58CAA4"/>
</linearGradient>
</defs>
</svg>
