<svg width="30" height="30" viewBox="0 0 30 30" fill="none" xmlns="http://www.w3.org/2000/svg">
<g clip-path="url(#clip0_1_838)">
<path d="M15.0178 23.6952C14.848 23.267 14.515 22.9237 14.0922 22.7408C13.6693 22.558 13.1911 22.5506 12.7628 22.7202L7.80653 24.684C7.43115 24.8333 7.11951 25.1088 6.9252 25.463C6.73088 25.8172 6.66602 26.228 6.74176 26.6249C6.8175 27.0217 7.02912 27.3798 7.34024 27.6375C7.65135 27.8952 8.04253 28.0365 8.44653 28.0371C8.66583 28.0361 8.88296 27.9937 9.08653 27.9121L14.0428 25.9484C14.4702 25.778 14.8127 25.4453 14.9954 25.0231C15.1781 24.6008 15.1862 24.1234 15.0178 23.6952ZM8.74091 27.0421C8.59371 27.1007 8.43242 27.1142 8.27753 27.0809C8.12264 27.0476 7.98113 26.9691 7.87097 26.8552C7.7608 26.7414 7.68695 26.5974 7.65878 26.4415C7.63062 26.2856 7.64942 26.1248 7.71278 25.9796C7.75406 25.8833 7.81396 25.796 7.88904 25.7229C7.96411 25.6497 8.05289 25.5921 8.15028 25.5534L10.1922 24.7446L10.7815 26.2315L8.74091 27.0421ZM13.6972 25.0784L11.6553 25.8909L11.0634 24.4009L13.1059 23.5921C13.303 23.514 13.5231 23.5173 13.7177 23.6014C13.9124 23.6854 14.0657 23.8432 14.144 24.0402C14.222 24.2372 14.2188 24.457 14.1351 24.6516C14.0513 24.8462 13.8938 24.9997 13.6972 25.0784Z" fill="url(#paint0_linear_1_838)"/>
<path d="M21.9843 23.3231L19.8736 21.6925L17.768 20.0625C17.5875 19.9228 17.3812 19.82 17.161 19.7601C16.9408 19.7002 16.7109 19.6843 16.4845 19.7133C16.2581 19.7423 16.0396 19.8157 15.8416 19.9293C15.6436 20.0428 15.4699 20.1943 15.3305 20.375C15.0493 20.7399 14.9243 21.2014 14.9829 21.6583C15.0415 22.1153 15.2789 22.5303 15.643 22.8125L19.8593 26.0744C20.0398 26.2139 20.2461 26.3165 20.4663 26.3763C20.6865 26.4361 20.9164 26.4519 21.1427 26.4229C21.3691 26.3939 21.5875 26.3206 21.7855 26.2072C21.9835 26.0937 22.1572 25.9424 22.2968 25.7619C22.4363 25.5813 22.5389 25.375 22.5987 25.1548C22.6585 24.9346 22.6743 24.7047 22.6453 24.4784C22.6163 24.252 22.543 24.0336 22.4296 23.8356C22.3161 23.6376 22.1648 23.4639 21.9843 23.3244V23.3231ZM16.073 20.9481C16.137 20.8649 16.2168 20.7952 16.3079 20.743C16.399 20.6909 16.4995 20.6574 16.6036 20.6443C16.6376 20.6401 16.6719 20.638 16.7061 20.6381C16.883 20.6378 17.0549 20.6967 17.1943 20.8056L18.9318 22.1493L17.953 23.4144L16.2155 22.0706C16.0474 21.9403 15.938 21.7486 15.9113 21.5376C15.8845 21.3266 15.9427 21.1137 16.073 20.9456V20.9481ZM21.5543 25.1887C21.4899 25.2721 21.4097 25.342 21.3183 25.3944C21.2268 25.4467 21.126 25.4805 21.0215 25.4938C20.917 25.5071 20.8108 25.4996 20.7092 25.4719C20.6076 25.4441 20.5125 25.3965 20.4293 25.3318L18.6918 23.9881L19.6705 22.7231L21.408 24.0669C21.5755 24.1964 21.6849 24.387 21.7123 24.597C21.7398 24.807 21.6829 25.0193 21.5543 25.1875V25.1887Z" fill="url(#paint1_linear_1_838)"/>
<path d="M20.2227 26.5257H14.892C14.437 26.5343 14.0035 26.7212 13.6848 27.046C13.3661 27.3708 13.1875 27.8078 13.1875 28.2629C13.1875 28.718 13.3661 29.1549 13.6848 29.4798C14.0035 29.8046 14.437 29.9914 14.892 30.0001H20.2227C20.4536 30.0045 20.683 29.9628 20.8976 29.8774C21.1122 29.7921 21.3077 29.6648 21.4725 29.5031C21.6374 29.3413 21.7683 29.1484 21.8577 28.9354C21.9471 28.7225 21.9931 28.4938 21.9931 28.2629C21.9931 28.0319 21.9471 27.8033 21.8577 27.5904C21.7683 27.3774 21.6374 27.1844 21.4725 27.0227C21.3077 26.8609 21.1122 26.7337 20.8976 26.6484C20.683 26.563 20.4536 26.5213 20.2227 26.5257ZM14.0927 28.2632C14.0928 28.0512 14.1771 27.8479 14.3269 27.6979C14.4768 27.5479 14.68 27.4635 14.892 27.4632H17.0889V29.0626H14.892C14.6801 29.0622 14.477 28.9779 14.3272 28.8281C14.1773 28.6782 14.093 28.4751 14.0927 28.2632ZM20.2227 29.0626H18.0264V27.4632H20.2227C20.3296 27.4602 20.436 27.4787 20.5356 27.5175C20.6353 27.5564 20.7261 27.6148 20.8028 27.6894C20.8794 27.7639 20.9404 27.8531 20.982 27.9516C21.0236 28.0501 21.045 28.156 21.045 28.2629C21.045 28.3698 21.0236 28.4757 20.982 28.5742C20.9404 28.6727 20.8794 28.7619 20.8028 28.8364C20.7261 28.911 20.6353 28.9694 20.5356 29.0082C20.436 29.0471 20.3296 29.0656 20.2227 29.0626Z" fill="url(#paint2_linear_1_838)"/>
<path d="M28.4688 25.375C28.1663 25.0308 27.7836 24.7666 27.3546 24.6057C26.9255 24.4448 26.4635 24.3922 26.0093 24.4525C25.5551 24.5128 25.1227 24.6842 24.7506 24.9515C24.3785 25.2188 24.078 25.5738 23.8758 25.985C23.6736 26.3961 23.5759 26.8508 23.5914 27.3087C23.6069 27.7667 23.7351 28.2137 23.9647 28.6103C24.1942 29.0068 24.518 29.3407 24.9074 29.5822C25.2967 29.8237 25.7397 29.9655 26.1969 29.995C26.2594 29.9987 26.3219 30.0006 26.3794 30.0006C26.9148 29.9998 27.4386 29.8448 27.8882 29.5541C28.3378 29.2634 28.6942 28.8493 28.9146 28.3614C29.135 27.8735 29.2102 27.3324 29.1311 26.8029C29.0521 26.2734 28.8221 25.7778 28.4688 25.3756V25.375ZM25.1563 25.8262C25.4623 25.5559 25.8497 25.3953 26.2572 25.3698C26.6647 25.3443 27.069 25.4554 27.4063 25.6856L24.73 28.0387C24.5437 27.6753 24.4844 27.26 24.5616 26.8589C24.6389 26.4579 24.8482 26.0943 25.1563 25.8262ZM27.5975 28.6025C27.2921 28.8739 26.9045 29.0352 26.4967 29.0606C26.0889 29.0859 25.6843 28.9739 25.3475 28.7425L28.0232 26.3906C28.2059 26.7546 28.2631 27.1689 28.1859 27.5688C28.1087 27.9688 27.9014 28.332 27.5963 28.6018L27.5975 28.6025Z" fill="url(#paint3_linear_1_838)"/>
<path d="M24.9356 23.7421C25.4835 23.6832 26.0016 23.4632 26.4244 23.1098C26.8473 22.7565 27.1559 22.2857 27.3111 21.757C27.4664 21.2283 27.4615 20.6654 27.2969 20.1395C27.1323 19.6136 26.8154 19.1484 26.3864 18.8025C25.9574 18.4567 25.4354 18.2459 24.8866 18.1967C24.3378 18.1475 23.7867 18.2621 23.303 18.5261C22.8193 18.7901 22.4247 19.1916 22.1692 19.6798C21.9137 20.168 21.8087 20.7211 21.8675 21.269C21.9407 21.9515 22.2634 22.5829 22.7735 23.0422C23.2837 23.5015 23.9454 23.7563 24.6318 23.7577C24.7333 23.7578 24.8347 23.7526 24.9356 23.7421ZM23.1987 19.8127C23.3504 19.6232 23.5382 19.4656 23.7511 19.349C23.964 19.2324 24.1979 19.1591 24.4393 19.1333C24.5051 19.1264 24.5713 19.1228 24.6375 19.1227C25.011 19.1246 25.3753 19.2396 25.6822 19.4526C25.9891 19.6656 26.2243 19.9665 26.3568 20.3158L22.815 20.6958C22.8618 20.3725 22.9943 20.0676 23.1987 19.8127ZM23.4781 22.4121C23.2239 22.2061 23.0296 21.9356 22.9156 21.629L26.4593 21.2502C26.4118 21.5716 26.2801 21.8748 26.0776 22.1289C25.8751 22.383 25.609 22.5791 25.3063 22.6972C25.0036 22.8153 24.6751 22.8512 24.354 22.8014C24.0329 22.7515 23.7307 22.6177 23.4781 22.4133V22.4121Z" fill="url(#paint4_linear_1_838)"/>
<path d="M15.4805 26.1037C16.1128 26.1051 16.7294 25.9062 17.2417 25.5356C17.2938 25.5005 17.3382 25.4552 17.3725 25.4026C17.4067 25.35 17.4301 25.291 17.4411 25.2292C17.4521 25.1673 17.4506 25.1039 17.4366 25.0427C17.4226 24.9815 17.3965 24.9237 17.3598 24.8728C17.323 24.8218 17.2764 24.7788 17.2228 24.7462C17.1691 24.7137 17.1094 24.6922 17.0473 24.6831C16.9851 24.6741 16.9218 24.6776 16.861 24.6935C16.8003 24.7093 16.7433 24.7373 16.6936 24.7756C16.3405 25.0304 15.9159 25.1671 15.4805 25.1662C15.3561 25.1662 15.2369 25.2156 15.149 25.3035C15.0611 25.3914 15.0117 25.5106 15.0117 25.635C15.0117 25.7593 15.0611 25.8785 15.149 25.9664C15.2369 26.0543 15.3561 26.1037 15.4805 26.1037Z" fill="url(#paint5_linear_1_838)"/>
<path d="M5.73906 25.1662H3.85219C3.30101 25.1654 2.77266 24.9461 2.38298 24.5563C1.9933 24.1665 1.7741 23.638 1.77344 23.0869V21.9375H14.0609C14.1853 21.9375 14.3045 21.8881 14.3924 21.8002C14.4803 21.7123 14.5297 21.5931 14.5297 21.4688C14.5297 21.3444 14.4803 21.2252 14.3924 21.1373C14.3045 21.0494 14.1853 21 14.0609 21H1.77344V11.4919H3.87344C3.99776 11.4919 4.11699 11.4425 4.20489 11.3546C4.2928 11.2667 4.34219 11.1474 4.34219 11.0231C4.34219 10.8988 4.2928 10.7796 4.20489 10.6917C4.11699 10.6038 3.99776 10.5544 3.87344 10.5544H1.77344V8.45813C1.7741 7.90701 1.99332 7.37866 2.38302 6.98896C2.77272 6.59926 3.30107 6.38004 3.85219 6.37937H15.4772C16.0283 6.38004 16.5567 6.59926 16.9464 6.98896C17.3361 7.37866 17.5553 7.90701 17.5559 8.45813V10.5544H5.47969C5.35537 10.5544 5.23614 10.6038 5.14823 10.6917C5.06032 10.7796 5.01094 10.8988 5.01094 11.0231C5.01094 11.1474 5.06032 11.2667 5.14823 11.3546C5.23614 11.4425 5.35537 11.4919 5.47969 11.4919H17.5572V18.9506C17.5572 19.0749 17.6066 19.1942 17.6945 19.2821C17.7824 19.37 17.9016 19.4194 18.0259 19.4194C18.1503 19.4194 18.2695 19.37 18.3574 19.2821C18.4453 19.1942 18.4947 19.0749 18.4947 18.9506V8.45813C18.4937 7.65847 18.1756 6.89185 17.6102 6.32641C17.0447 5.76097 16.2781 5.44287 15.4784 5.44187H13.7909V3.94187H16.1034C16.2278 3.94187 16.347 3.89249 16.4349 3.80458C16.5228 3.71667 16.5722 3.59745 16.5722 3.47312V0.46875C16.5722 0.34443 16.5228 0.225201 16.4349 0.137294C16.347 0.049386 16.2278 0 16.1034 0L3.23156 0C3.10724 0 2.98801 0.049386 2.90011 0.137294C2.8122 0.225201 2.76281 0.34443 2.76281 0.46875V3.47312C2.76281 3.59745 2.8122 3.71667 2.90011 3.80458C2.98801 3.89249 3.10724 3.94187 3.23156 3.94187H5.54031V5.44187H3.85281C3.05305 5.4427 2.28627 5.76073 1.72069 6.32619C1.15512 6.89165 0.83693 7.65836 0.835938 8.45813V23.0869C0.836764 23.8866 1.15479 24.6534 1.72025 25.219C2.28571 25.7846 3.05242 26.1028 3.85219 26.1037H5.73906C5.86338 26.1037 5.98261 26.0544 6.07052 25.9665C6.15843 25.8785 6.20781 25.7593 6.20781 25.635C6.20781 25.5107 6.15843 25.3915 6.07052 25.3035C5.98261 25.2156 5.86338 25.1662 5.73906 25.1662ZM6.47781 3.94187H10.9666C11.0909 3.94187 11.2101 3.89249 11.298 3.80458C11.3859 3.71667 11.4353 3.59745 11.4353 3.47312C11.4353 3.3488 11.3859 3.22958 11.298 3.14167C11.2101 3.05376 11.0909 3.00438 10.9666 3.00437H3.70031V0.9375H15.6303V3.00437H12.5384C12.4141 3.00438 12.2949 3.05376 12.207 3.14167C12.1191 3.22958 12.0697 3.3488 12.0697 3.47312C12.0697 3.59745 12.1191 3.71667 12.207 3.80458C12.2949 3.89249 12.4141 3.94187 12.5384 3.94187H12.8509V5.44187H6.47594L6.47781 3.94187Z" fill="url(#paint6_linear_1_838)"/>
<path d="M10.8184 19.5473H8.51594C8.39162 19.5473 8.27239 19.4979 8.18448 19.41C8.09657 19.3221 8.04719 19.2028 8.04719 19.0785V17.8516H6.82031C6.69599 17.8516 6.57676 17.8023 6.48886 17.7143C6.40095 17.6264 6.35156 17.5072 6.35156 17.3829V15.0804C6.35156 14.9561 6.40095 14.8368 6.48886 14.7489C6.57676 14.661 6.69599 14.6116 6.82031 14.6116H8.04719V13.3848C8.04719 13.2604 8.09657 13.1412 8.18448 13.0533C8.27239 12.9654 8.39162 12.916 8.51594 12.916H10.8184C10.9428 12.916 11.062 12.9654 11.1499 13.0533C11.2378 13.1412 11.2872 13.2604 11.2872 13.3848V14.6116H12.5134C12.6378 14.6116 12.757 14.661 12.8449 14.7489C12.9328 14.8368 12.9822 14.9561 12.9822 15.0804V17.3829C12.9822 17.5072 12.9328 17.6264 12.8449 17.7143C12.757 17.8023 12.6378 17.8516 12.5134 17.8516H11.2872V19.0785C11.2872 19.2028 11.2378 19.3221 11.1499 19.41C11.062 19.4979 10.9428 19.5473 10.8184 19.5473ZM8.98469 18.6098H10.3497V17.3829C10.3497 17.2586 10.3991 17.1393 10.487 17.0514C10.5749 16.9635 10.6941 16.9141 10.8184 16.9141H12.0447V15.5491H10.8184C10.6941 15.5491 10.5749 15.4998 10.487 15.4118C10.3991 15.3239 10.3497 15.2047 10.3497 15.0804V13.8535H8.98469V15.0804C8.98469 15.2047 8.9353 15.3239 8.84739 15.4118C8.75949 15.4998 8.64026 15.5491 8.51594 15.5491H7.28906V16.9141H8.51594C8.64026 16.9141 8.75949 16.9635 8.84739 17.0514C8.9353 17.1393 8.98469 17.2586 8.98469 17.3829V18.6098Z" fill="url(#paint7_linear_1_838)"/>
</g>
<defs>
<linearGradient id="paint0_linear_1_838" x1="6.26213" y1="22.5981" x2="15.7555" y2="24.0773" gradientUnits="userSpaceOnUse">
<stop stop-color="#2F7FAA"/>
<stop offset="1" stop-color="#58CAA4"/>
</linearGradient>
<linearGradient id="paint1_linear_1_838" x1="14.5592" y1="19.6992" x2="23.3174" y2="20.7045" gradientUnits="userSpaceOnUse">
<stop stop-color="#2F7FAA"/>
<stop offset="1" stop-color="#58CAA4"/>
</linearGradient>
<linearGradient id="paint2_linear_1_838" x1="12.7186" y1="26.5254" x2="22.2591" y2="28.9565" gradientUnits="userSpaceOnUse">
<stop stop-color="#2F7FAA"/>
<stop offset="1" stop-color="#58CAA4"/>
</linearGradient>
<linearGradient id="paint3_linear_1_838" x1="23.2931" y1="24.4282" x2="29.6576" y2="25.0682" gradientUnits="userSpaceOnUse">
<stop stop-color="#2F7FAA"/>
<stop offset="1" stop-color="#58CAA4"/>
</linearGradient>
<linearGradient id="paint4_linear_1_838" x1="21.5548" y1="18.1855" x2="27.9201" y2="18.8257" gradientUnits="userSpaceOnUse">
<stop stop-color="#2F7FAA"/>
<stop offset="1" stop-color="#58CAA4"/>
</linearGradient>
<linearGradient id="paint5_linear_1_838" x1="14.882" y1="24.6782" x2="17.6127" y2="25.1476" gradientUnits="userSpaceOnUse">
<stop stop-color="#2F7FAA"/>
<stop offset="1" stop-color="#58CAA4"/>
</linearGradient>
<linearGradient id="paint6_linear_1_838" x1="-0.104469" y1="2.96336e-07" x2="20.1766" y2="1.37964" gradientUnits="userSpaceOnUse">
<stop stop-color="#2F7FAA"/>
<stop offset="1" stop-color="#58CAA4"/>
</linearGradient>
<linearGradient id="paint7_linear_1_838" x1="5.99845" y1="12.916" x2="13.5724" y2="13.6776" gradientUnits="userSpaceOnUse">
<stop stop-color="#2F7FAA"/>
<stop offset="1" stop-color="#58CAA4"/>
</linearGradient>
<clipPath id="clip0_1_838">
<rect width="30" height="30" fill="white"/>
</clipPath>
</defs>
</svg>
