<svg width="30" height="30" viewBox="0 0 30 30" fill="none" xmlns="http://www.w3.org/2000/svg">
<g clip-path="url(#clip0_1_755)">
<path d="M29.3106 0.323242C29.126 0.323242 28.9414 0.461704 28.9414 0.692473V8.07709C28.9414 8.2617 29.0799 8.44632 29.3106 8.44632C29.5414 8.44632 29.6799 8.30786 29.6799 8.07709V0.692473C29.6799 0.461704 29.4953 0.323242 29.3106 0.323242Z" fill="url(#paint0_linear_1_755)"/>
<path d="M29.3106 9.5542C29.126 9.5542 28.9414 9.69266 28.9414 9.92343V10.8465C28.9414 11.0311 29.0799 11.2157 29.3106 11.2157C29.5414 11.2157 29.6799 11.0773 29.6799 10.8465V9.92343C29.6799 9.69266 29.4953 9.5542 29.3106 9.5542Z" fill="url(#paint1_linear_1_755)"/>
<path d="M8.07897 4.29266C8.26358 4.29266 8.4482 4.1542 8.4482 3.92343C8.4482 3.69266 8.30974 3.5542 8.07897 3.5542H3.00204C2.81743 3.5542 2.63281 3.69266 2.63281 3.92343C2.63281 4.1542 2.77127 4.29266 3.00204 4.29266H8.07897Z" fill="url(#paint2_linear_1_755)"/>
<path d="M1.15499 3.6001H0.69345C0.508834 3.6001 0.324219 3.73856 0.324219 3.96933C0.324219 4.2001 0.46268 4.33856 0.69345 4.33856H1.15499C1.3396 4.33856 1.52422 4.2001 1.52422 3.96933C1.52422 3.73856 1.3396 3.6001 1.15499 3.6001Z" fill="url(#paint3_linear_1_755)"/>
<path d="M23.3077 28.0615H22.7077V27.4615C22.7077 27.2769 22.5692 27.0923 22.3385 27.0923C22.1077 27.0923 21.9692 27.2307 21.9692 27.4615V28.0615H21.3692C21.1846 28.0615 21 28.2 21 28.4307C21 28.6615 21.1385 28.8 21.3692 28.8H21.9692V29.4C21.9692 29.5846 22.1077 29.7692 22.3385 29.7692C22.5692 29.7692 22.7077 29.6307 22.7077 29.4V28.8H23.3077C23.4923 28.8 23.6769 28.6615 23.6769 28.4307C23.6769 28.2 23.4923 28.0615 23.3077 28.0615Z" fill="url(#paint4_linear_1_755)"/>
<path d="M23.7716 1.98478H24.3716V2.58478C24.3716 2.7694 24.51 2.95401 24.7408 2.95401C24.9716 2.95401 25.11 2.81555 25.11 2.58478V1.98478H25.71C25.8947 1.98478 26.0793 1.84632 26.0793 1.61555C26.0793 1.38478 25.9408 1.24632 25.71 1.24632H25.11V0.692473C25.11 0.507858 24.9716 0.323242 24.7408 0.323242C24.51 0.323242 24.3716 0.461704 24.3716 0.692473V1.29247H23.7716C23.587 1.29247 23.4023 1.43093 23.4023 1.6617C23.4023 1.89247 23.587 1.98478 23.7716 1.98478Z" fill="url(#paint5_linear_1_755)"/>
<path d="M26.1707 8.03083C19.4322 7.93852 15.0938 1.93852 15.0476 1.89237C14.9092 1.70775 14.6322 1.70775 14.4938 1.89237C14.4476 1.93852 10.1092 7.93852 3.37069 8.03083C3.18608 8.03083 3.04762 8.16929 3.04762 8.35391C3.04762 8.49237 1.75531 22.2001 14.6784 27.8308C14.7245 27.8308 14.7707 27.877 14.8168 27.877C14.863 27.877 14.9092 27.877 14.9553 27.8308C27.8322 22.2462 26.5861 8.49237 26.5861 8.35391C26.4938 8.16929 26.3553 8.03083 26.1707 8.03083ZM14.7707 27.0924C3.55531 22.1539 3.60146 10.7078 3.69377 8.72314C9.69377 8.49237 13.7092 4.01544 14.7707 2.67698C15.8322 4.01544 19.8476 8.49237 25.8476 8.72314C25.9399 10.7078 25.9861 22.1539 14.7707 27.0924Z" fill="url(#paint6_linear_1_755)"/>
<path d="M23.4926 10.5232C19.708 9.78471 16.8003 7.61548 15.0003 5.95394C14.8618 5.81548 14.6772 5.81548 14.5388 5.95394C12.7849 7.61548 9.83107 9.78471 6.04645 10.5232C5.86184 10.5693 5.76953 10.7078 5.76953 10.8924C6.04645 14.4924 7.52338 21.0924 14.5849 24.7386C14.6311 24.7847 14.6772 24.7847 14.7234 24.7847C14.7695 24.7847 14.8157 24.7847 14.8618 24.7386C21.9695 21.0924 23.4465 14.4924 23.6772 10.8924C23.7695 10.7078 23.6311 10.5693 23.4926 10.5232ZM14.7695 24.0463C8.30799 20.6309 6.83107 14.6309 6.50799 11.1693C10.1541 10.3847 12.9695 8.35394 14.7695 6.69241C16.5695 8.35394 19.4311 10.3386 23.0311 11.1693C22.7541 14.6309 21.2311 20.6309 14.7695 24.0463Z" fill="url(#paint7_linear_1_755)"/>
<path d="M12.8331 12.231V13.7541H11.7716C11.587 13.7541 11.4023 13.8925 11.4023 14.1233V18.7387C11.4023 18.9233 11.5408 19.1079 11.7716 19.1079H18.2331C18.4177 19.1079 18.6023 18.9695 18.6023 18.7387V14.1233C18.6023 13.9387 18.4639 13.7541 18.2331 13.7541H17.1716V12.231C17.1716 11.031 16.2023 10.0156 14.9562 10.0156C13.71 10.0156 12.8331 11.031 12.8331 12.231ZM17.91 18.3695H12.1408V14.4464H13.2023H16.8947H17.9562V18.3695H17.91ZM13.5254 12.231C13.5254 11.4002 14.2177 10.7079 15.0485 10.7079C15.8793 10.7079 16.5716 11.4002 16.5716 12.231V13.7541H13.5716V12.231H13.5254Z" fill="url(#paint8_linear_1_755)"/>
<path d="M15.002 15.6001C14.8174 15.6001 14.6328 15.7386 14.6328 15.9693V16.8924C14.6328 17.077 14.7713 17.2616 15.002 17.2616C15.2328 17.2616 15.3713 17.1232 15.3713 16.8924V15.9693C15.3713 15.7386 15.1867 15.6001 15.002 15.6001Z" fill="url(#paint9_linear_1_755)"/>
</g>
<defs>
<linearGradient id="paint0_linear_1_755" x1="28.9021" y1="0.323242" x2="29.7541" y2="0.331031" gradientUnits="userSpaceOnUse">
<stop stop-color="#2F7FAA"/>
<stop offset="1" stop-color="#58CAA4"/>
</linearGradient>
<linearGradient id="paint1_linear_1_755" x1="28.9021" y1="9.5542" x2="29.7524" y2="9.5922" gradientUnits="userSpaceOnUse">
<stop stop-color="#2F7FAA"/>
<stop offset="1" stop-color="#58CAA4"/>
</linearGradient>
<linearGradient id="paint2_linear_1_755" x1="2.32312" y1="3.5542" x2="6.44693" y2="6.81984" gradientUnits="userSpaceOnUse">
<stop stop-color="#2F7FAA"/>
<stop offset="1" stop-color="#58CAA4"/>
</linearGradient>
<linearGradient id="paint3_linear_1_755" x1="0.260313" y1="3.6001" x2="1.60888" y2="3.82046" gradientUnits="userSpaceOnUse">
<stop stop-color="#2F7FAA"/>
<stop offset="1" stop-color="#58CAA4"/>
</linearGradient>
<linearGradient id="paint4_linear_1_755" x1="20.8574" y1="27.0923" x2="23.9152" y2="27.3998" gradientUnits="userSpaceOnUse">
<stop stop-color="#2F7FAA"/>
<stop offset="1" stop-color="#58CAA4"/>
</linearGradient>
<linearGradient id="paint5_linear_1_755" x1="23.2598" y1="0.323242" x2="26.3165" y2="0.636008" gradientUnits="userSpaceOnUse">
<stop stop-color="#2F7FAA"/>
<stop offset="1" stop-color="#58CAA4"/>
</linearGradient>
<linearGradient id="paint6_linear_1_755" x1="1.75453" y1="1.75391" x2="28.7697" y2="4.20887" gradientUnits="userSpaceOnUse">
<stop stop-color="#2F7FAA"/>
<stop offset="1" stop-color="#58CAA4"/>
</linearGradient>
<linearGradient id="paint7_linear_1_755" x1="4.81428" y1="5.8501" x2="25.3248" y2="7.80399" gradientUnits="userSpaceOnUse">
<stop stop-color="#2F7FAA"/>
<stop offset="1" stop-color="#58CAA4"/>
</linearGradient>
<linearGradient id="paint8_linear_1_755" x1="11.0189" y1="10.0156" x2="19.274" y2="10.673" gradientUnits="userSpaceOnUse">
<stop stop-color="#2F7FAA"/>
<stop offset="1" stop-color="#58CAA4"/>
</linearGradient>
<linearGradient id="paint9_linear_1_755" x1="14.5935" y1="15.6001" x2="15.4438" y2="15.6381" gradientUnits="userSpaceOnUse">
<stop stop-color="#2F7FAA"/>
<stop offset="1" stop-color="#58CAA4"/>
</linearGradient>
<clipPath id="clip0_1_755">
<rect width="30" height="30" fill="white"/>
</clipPath>
</defs>
</svg>
