<?xml version="1.0" ?>
<svg height="32" id="svg4050" version="1.1" viewBox="0 0 32 32.000001" width="32" xmlns="http://www.w3.org/2000/svg"
>
    <defs id="defs4052"/>
    <g id="layer1" transform="translate(0,-1020.3622)">
        <path d="M 8 3 C 6.9006421 3 6 3.9007 6 5 L 6 27 C 6 28.0994 6.9006421 29 8 29 L 24 29 C 25.099357 29 26 28.0994 26 27 L 26 8.5 A 0.50005 0.50005 0 0 0 26 8.4921875 A 0.50005 0.50005 0 0 0 26 8.484375 A 0.50005 0.50005 0 0 0 25.998047 8.4492188 A 0.50005 0.50005 0 0 0 25.996094 8.4335938 A 0.50005 0.50005 0 0 0 25.800781 8.09375 L 20.916016 3.2109375 A 0.50005 0.50005 0 0 0 20.908203 3.2011719 A 0.50005 0.50005 0 0 0 20.5 3 L 8 3 z M 8 4 L 20 4 L 20 7 C 20 8.0994 20.900642 9 22 9 L 25 9 L 25 27 C 25 27.5627 24.562661 28 24 28 L 8 28 C 7.4373387 28 7 27.5627 7 27 L 7 5 C 7 4.4374 7.4373387 4 8 4 z M 21 4.7070312 L 24.292969 8 L 22 8 C 21.437338 8 21 7.5627 21 7 L 21 4.7070312 z M 10.5 12 A 0.50005 0.50005 0 0 0 10 12.5 L 10 15.5 L 10 18.5 L 10 21.5 A 0.50005 0.50005 0 0 0 10.5 22 L 15.882812 22 A 0.50005 0.50005 0 0 0 16.115234 22 L 21.5 22 A 0.50005 0.50005 0 0 0 22 21.5 L 22 18.5 L 22 15.5 L 22 12.5 A 0.50005 0.50005 0 0 0 21.5 12 L 15.992188 12 L 10.5 12 z M 11 13 L 15.5 13 L 15.5 15 L 11 15 L 11 13 z M 16.5 13 L 21 13 L 21 15 L 16.5 15 L 16.5 13 z M 11 16 L 15.5 16 L 15.5 18 L 11 18 L 11 16 z M 16.5 16 L 21 16 L 21 18 L 16.5 18 L 16.5 16 z M 11 19 L 15.5 19 L 15.5 21 L 11 21 L 11 19 z M 16.5 19 L 21 19 L 21 21 L 16.5 21 L 16.5 19 z "
              id="path4656"
              style="color:#FFFFFF;font-style:normal;font-variant:normal;font-weight:semibold;font-stretch:normal;font-size:medium;line-height:normal;font-family:sans-serif;text-indent:0;text-align:start;text-decoration:none;text-decoration-line:none;text-decoration-style:solid;text-decoration-color:#FFFFFF;letter-spacing:normal;word-spacing:normal;text-transform:none;direction:ltr;block-progression:tb;writing-mode:lr-tb;baseline-shift:baseline;text-anchor:start;white-space:normal;clip-rule:nonzero;display:inline;overflow:visible;visibility:visible;opacity:1;isolation:auto;mix-blend-mode:normal;color-interpolation:sRGB;color-interpolation-filters:linearRGB;solid-color:#FFFFFF;solid-opacity:1;fill:#FFFFFF;fill-opacity:1;fill-rule:nonzero;stroke:none;stroke-width:1;stroke-linecap:round;stroke-linejoin:round;stroke-miterlimit:4.0999999;stroke-dasharray:none;stroke-dashoffset:0;stroke-opacity:1;color-rendering:auto;image-rendering:auto;shape-rendering:auto;text-rendering:auto;enable-background:accumulate"
              transform="translate(0,1020.3622)"/>
    </g>
</svg>