<svg width="30" height="30" viewBox="0 0 30 30" fill="none" xmlns="http://www.w3.org/2000/svg">
<path d="M11.9587 16.6753L7.47936 21.1547L7.5 18.75C7.5 18.2325 7.08 17.8125 6.5625 17.8125C6.045 17.8125 5.625 18.2325 5.625 18.75V23.4375C5.625 23.715 5.73936 23.939 5.92123 24.0938C6.09088 24.2672 6.32716 24.375 6.58873 24.375H11.25C11.7675 24.375 12.1875 23.955 12.1875 23.4375C12.1875 22.92 11.7675 22.5 11.25 22.5H8.78529L13.2844 18.0009L11.9587 16.6753ZM11.25 7.5C11.7675 7.5 12.1875 7.08 12.1875 6.5625C12.1875 6.045 11.7675 5.625 11.25 5.625H6.58877C6.32721 5.625 6.09093 5.73377 5.92127 5.90623C5.73941 6.06093 5.62505 6.285 5.62505 6.5625V11.25C5.62505 11.7675 6.04505 12.1875 6.56255 12.1875C7.08005 12.1875 7.5 11.7675 7.5 11.25L7.47936 8.84436L11.9587 13.3237L13.2844 11.9981L8.78623 7.5H11.25ZM23.4375 17.8125C22.92 17.8125 22.5 18.2325 22.5 18.75L22.5206 21.1556L18.0412 16.6762L16.7156 18.0019L21.2147 22.5H18.75C18.2325 22.5 17.8125 22.92 17.8125 23.4375C17.8125 23.955 18.2325 24.375 18.75 24.375H23.4113C23.6737 24.375 23.9091 24.2662 24.0787 24.0928C24.2606 23.939 24.375 23.715 24.375 23.4375V18.75C24.375 18.2325 23.955 17.8125 23.4375 17.8125ZM23.4113 5.625H18.75C18.2325 5.625 17.8125 6.045 17.8125 6.5625C17.8125 7.08 18.2325 7.5 18.75 7.5H21.2138L16.7147 11.9991L18.0403 13.3247L22.5197 8.84534L22.5 11.25C22.5 11.7675 22.92 12.1875 23.4375 12.1875C23.955 12.1875 24.375 11.7675 24.375 11.25V6.5625C24.375 6.285 24.2597 6.06093 24.0787 5.90623C23.9091 5.73377 23.6728 5.625 23.4113 5.625ZM26.25 0H3.75C1.67907 0 0 1.67907 0 3.75V26.25C0 28.3209 1.67907 30 3.75 30H26.25C28.3209 30 30 28.3209 30 26.25V3.75C30 1.67907 28.3209 0 26.25 0ZM28.125 26.25C28.125 27.2859 27.2859 28.125 26.25 28.125H3.75C2.71407 28.125 1.875 27.2859 1.875 26.25V3.75C1.875 2.715 2.71407 1.875 3.75 1.875H26.25C27.2859 1.875 28.125 2.715 28.125 3.75V26.25Z" fill="url(#paint0_linear_1_924)"/>
<defs>
<linearGradient id="paint0_linear_1_924" x1="-1.59763" y1="3.40567e-07" x2="32.6702" y2="3.44592" gradientUnits="userSpaceOnUse">
<stop stop-color="#2F7FAA"/>
<stop offset="1" stop-color="#58CAA4"/>
</linearGradient>
</defs>
</svg>
