<svg width="35" height="35" viewBox="0 0 35 35" fill="none" xmlns="http://www.w3.org/2000/svg">
<path fill-rule="evenodd" clip-rule="evenodd" d="M4.7691 16.7077C11.8056 13.5948 16.5092 11.5828 18.8422 10.5957C25.54 7.78649 26.9323 7.29297 27.8354 7.29297C28.0235 7.29297 28.4751 7.33093 28.7761 7.55871C29.0019 7.74852 29.0771 8.01426 29.1148 8.20408C29.1524 8.39389 29.19 8.81148 29.1524 9.15315C28.7761 12.9874 27.2333 22.3642 26.4055 26.654C26.0668 28.4762 25.3895 29.0836 24.7498 29.1595C23.3576 29.2734 22.2664 28.2105 20.9117 27.3373C18.8045 25.9327 17.6004 25.0596 15.5309 23.6929C13.1603 22.0985 14.703 21.2253 16.0577 19.8207C16.3963 19.4411 22.605 13.7846 22.7179 13.2531C22.7179 13.1772 22.7555 12.9494 22.605 12.8355C22.4545 12.7216 22.2664 12.7596 22.1159 12.7976C21.8901 12.8355 18.5035 15.1133 11.9185 19.5929C10.9402 20.2762 10.0747 20.5799 9.28453 20.5799C8.41907 20.5799 6.76342 20.0864 5.52168 19.6688C4.01653 19.1753 2.81242 18.9096 2.92531 18.0744C3.03819 17.6188 3.64025 17.1633 4.7691 16.7077Z" fill="white"/>
</svg>
