<svg width="30" height="30" viewBox="0 0 30 30" fill="none" xmlns="http://www.w3.org/2000/svg">
<g clip-path="url(#clip0_1_904)">
<path d="M21.4453 19.8633C21.1219 19.8633 20.8594 20.1258 20.8594 20.4492C20.8594 20.7727 21.1219 21.0352 21.4453 21.0352C21.7688 21.0352 22.0312 20.7727 22.0312 20.4492C22.0312 20.1258 21.7688 19.8633 21.4453 19.8633Z" fill="url(#paint0_linear_1_904)"/>
<path d="M6.21094 23.9648C5.8875 23.9648 5.625 24.2273 5.625 24.5508C5.625 24.8742 5.8875 25.1367 6.21094 25.1367C6.53438 25.1367 6.79688 24.8742 6.79688 24.5508C6.79688 24.2273 6.53438 23.9648 6.21094 23.9648Z" fill="url(#paint1_linear_1_904)"/>
<path d="M16.1719 4.27734C16.1719 3.30809 15.3833 2.51953 14.4141 2.51953C13.4448 2.51953 12.6562 3.30809 12.6562 4.27734C12.6562 4.72723 12.8263 5.13797 13.1053 5.44922C12.8263 5.76047 12.6562 6.17121 12.6562 6.62109C12.6562 7.59035 13.4448 8.37891 14.4141 8.37891C15.3833 8.37891 16.1719 7.59035 16.1719 6.62109C16.1719 6.17121 16.0018 5.76047 15.7229 5.44922C16.0018 5.13797 16.1719 4.72723 16.1719 4.27734ZM14.4141 7.20703C14.091 7.20703 13.8281 6.94418 13.8281 6.62109C13.8281 6.29801 14.091 6.03516 14.4141 6.03516C14.7371 6.03516 15 6.29801 15 6.62109C15 6.94418 14.7371 7.20703 14.4141 7.20703ZM14.4141 4.86328C14.091 4.86328 13.8281 4.60043 13.8281 4.27734C13.8281 3.95426 14.091 3.69141 14.4141 3.69141C14.7371 3.69141 15 3.95426 15 4.27734C15 4.60043 14.7371 4.86328 14.4141 4.86328Z" fill="url(#paint2_linear_1_904)"/>
<path d="M14.4141 23.9648H8.55469C8.23107 23.9648 7.96875 24.2272 7.96875 24.5508C7.96875 24.8743 8.23107 25.1367 8.55469 25.1367H14.4141C14.7376 25.1367 15 24.8743 15 24.5508C15 24.2272 14.7376 23.9648 14.4141 23.9648Z" fill="url(#paint3_linear_1_904)"/>
<path d="M27.8906 17.0344V12.4805C27.8906 11.5112 27.1021 10.7227 26.1328 10.7227H25.5469V7.79297C25.5469 6.82371 24.7583 6.03516 23.7891 6.03516H22.0312V4.27734C22.0312 3.30809 21.2427 2.51953 20.2734 2.51953H18.5156V1.75781C18.5156 0.788555 17.7271 0 16.7578 0H6.21094C5.24168 0 4.45312 0.788555 4.45312 1.75781V6.03516H3.86719C2.25176 6.03516 0.9375 7.34941 0.9375 8.96484V27.0703C0.9375 28.6857 2.25176 30 3.86719 30H26.1328C27.1021 30 27.8906 29.2114 27.8906 28.2422V23.8641C28.5726 23.6222 29.0625 22.9709 29.0625 22.207V18.6914C29.0625 17.9276 28.5726 17.2763 27.8906 17.0344ZM22.0312 7.20703H23.7891C24.1121 7.20703 24.375 7.46988 24.375 7.79297V10.7227H22.0312V7.20703ZM18.5156 3.69141H20.2734C20.5965 3.69141 20.8594 3.95426 20.8594 4.27734V10.7227H18.5156V3.69141ZM10.3125 1.17188H16.7578C17.0809 1.17188 17.3438 1.43473 17.3438 1.75781V10.7227H10.3125V1.17188ZM7.96875 1.17188H9.14062V10.7227H7.96875V1.17188ZM5.625 1.75781C5.625 1.43473 5.88785 1.17188 6.21094 1.17188H6.79688V10.7227H5.625V1.75781ZM3.86719 7.20703H4.45312V10.7227H3.86719C2.89793 10.7227 2.10938 9.9341 2.10938 8.96484C2.10938 7.99559 2.89793 7.20703 3.86719 7.20703ZM26.7188 28.2422C26.7188 28.5653 26.4559 28.8281 26.1328 28.8281H3.86719C2.89793 28.8281 2.10938 28.0396 2.10938 27.0703V11.307C2.59939 11.6757 3.20818 11.8945 3.86719 11.8945H5.03906H17.9297H24.9609H26.1328C26.4559 11.8945 26.7188 12.1574 26.7188 12.4805V16.9336H25.5469V13.8281C25.5469 13.5046 25.2845 13.2422 24.9609 13.2422H3.86719C3.54357 13.2422 3.28125 13.5046 3.28125 13.8281V27.0703C3.28125 27.3939 3.54357 27.6562 3.86719 27.6562H24.9609C25.2845 27.6562 25.5469 27.3939 25.5469 27.0703V23.9648H26.7188V28.2422ZM22.0312 23.9648H24.375V26.4844H4.45312V14.4141H24.375V16.9336H22.0312C21.0925 16.9336 20.2098 17.2994 19.5457 17.9636C18.8814 18.6278 18.5156 19.5105 18.5156 20.4492C18.5156 22.3877 20.0927 23.9648 22.0312 23.9648ZM27.8906 22.207C27.8906 22.5301 27.6278 22.793 27.3047 22.793H22.0312C20.7389 22.793 19.6875 21.7416 19.6875 20.4492C19.6875 19.8236 19.9314 19.2351 20.3743 18.7922C20.8171 18.3494 21.4056 18.1055 22.0312 18.1055H27.3047C27.6278 18.1055 27.8906 18.3683 27.8906 18.6914V22.207Z" fill="url(#paint4_linear_1_904)"/>
</g>
<defs>
<linearGradient id="paint0_linear_1_904" x1="20.797" y1="19.8633" x2="22.1356" y2="19.9979" gradientUnits="userSpaceOnUse">
<stop stop-color="#2F7FAA"/>
<stop offset="1" stop-color="#58CAA4"/>
</linearGradient>
<linearGradient id="paint1_linear_1_904" x1="5.56259" y1="23.9648" x2="6.90118" y2="24.0995" gradientUnits="userSpaceOnUse">
<stop stop-color="#2F7FAA"/>
<stop offset="1" stop-color="#58CAA4"/>
</linearGradient>
<linearGradient id="paint2_linear_1_904" x1="12.469" y1="2.51953" x2="16.5107" y2="2.76339" gradientUnits="userSpaceOnUse">
<stop stop-color="#2F7FAA"/>
<stop offset="1" stop-color="#58CAA4"/>
</linearGradient>
<linearGradient id="paint3_linear_1_904" x1="7.5943" y1="23.9648" x2="13.5419" y2="27.5533" gradientUnits="userSpaceOnUse">
<stop stop-color="#2F7FAA"/>
<stop offset="1" stop-color="#58CAA4"/>
</linearGradient>
<linearGradient id="paint4_linear_1_904" x1="-0.560281" y1="3.40567e-07" x2="31.6048" y2="3.03232" gradientUnits="userSpaceOnUse">
<stop stop-color="#2F7FAA"/>
<stop offset="1" stop-color="#58CAA4"/>
</linearGradient>
<clipPath id="clip0_1_904">
<rect width="30" height="30" fill="white"/>
</clipPath>
</defs>
</svg>
